<svg width="184" height="36" viewBox="0 0 184 36" fill="none" xmlns="http://www.w3.org/2000/svg">
<g clip-path="url(#clip0)">
<path d="M12.8886 5.32545C12.0895 6.24859 11.6774 7.23922 11.6642 8.27035C11.6504 9.32911 12.0581 10.3763 12.8769 11.3843C12.9803 11.5122 13.1177 11.5766 13.2545 11.5766C13.3886 11.5766 13.5233 11.5148 13.6267 11.3914C13.8351 11.1427 13.8378 10.7357 13.632 10.4824C13.0206 9.72968 12.7151 8.99231 12.7247 8.29095C12.7332 7.61722 13.0344 6.93258 13.6156 6.26082C14.4295 5.34282 14.8474 4.34319 14.8575 3.28893C14.8681 2.21216 14.4534 1.1688 13.6251 0.1878C13.4162 -0.0590665 13.08 -0.0558322 12.8753 0.198699C12.6707 0.452597 12.6744 0.859564 12.8838 1.1077C13.4973 1.83346 13.8044 2.56183 13.7969 3.27346C13.7906 3.96196 13.4862 4.65046 12.8886 5.32545Z" fill="#12CB24"/>
<path d="M18.7091 5.32546C17.91 6.24859 17.498 7.23923 17.4847 8.27036C17.4709 9.32912 17.8787 10.3764 18.6975 11.3843C18.8009 11.5122 18.9382 11.5766 19.075 11.5766C19.2092 11.5766 19.3439 11.5148 19.4473 11.3915C19.6557 11.1427 19.6583 10.7357 19.4525 10.4825C18.8411 9.72969 18.5357 8.99232 18.5453 8.29096C18.5537 7.61722 18.8549 6.93259 19.4361 6.26083C20.2543 5.3377 20.6743 4.3342 20.6844 3.27733C20.695 2.2031 20.2824 1.1636 19.4579 0.187739C19.249 -0.0591276 18.9128 -0.0558932 18.7081 0.198638C18.5034 0.452536 18.5076 0.859503 18.7171 1.10764C19.3258 1.82827 19.6307 2.55277 19.6238 3.26187C19.617 3.95367 19.311 4.64596 18.7091 5.32546Z" fill="#12CB24"/>
<path d="M7.57338 5.32546C6.77428 6.24859 6.36225 7.23923 6.34897 8.27036C6.33517 9.32912 6.74296 10.3764 7.56172 11.3843C7.66513 11.5122 7.80247 11.5766 7.93929 11.5766C8.07344 11.5766 8.20812 11.5148 8.31153 11.3915C8.51992 11.1427 8.52258 10.7357 8.3168 10.4825C7.70538 9.72969 7.39996 8.99232 7.40953 8.29096C7.418 7.61722 7.71919 6.93259 8.30039 6.26083C9.11858 5.3377 9.5386 4.3342 9.54864 3.27733C9.55925 2.2031 9.14671 1.1636 8.32214 0.187739C8.11323 -0.0591276 7.77701 -0.0558932 7.57234 0.198638C7.36766 0.452536 7.37189 0.859503 7.58133 1.10764C8.19008 1.82827 8.49498 2.55277 8.48807 3.26187C8.48123 3.95367 8.17523 4.64596 7.57338 5.32546Z" fill="#12CB24"/>
<path d="M27.3472 16.7132H26.5089C26.5099 16.3712 26.4018 16.0491 26.2024 15.8055C26.0014 15.5593 25.7331 15.4236 25.4473 15.4236H21.2067V18.3088L22.5631 19.4164C22.7094 19.536 22.7975 19.7359 22.797 19.95L22.7927 25.0929C22.7922 25.4477 22.5552 25.7351 22.2625 25.7351H19.0808C18.7881 25.7351 18.5505 25.4477 18.5505 25.0922V19.9494C18.5505 19.7353 18.6386 19.5354 18.7849 19.4158L20.1461 18.3081V15.4237H1.06219C0.776368 15.4237 0.508067 15.5593 0.307102 15.8056C0.106659 16.0505 -0.00255194 16.3752 5.79985e-05 16.7191C0.040889 22.5196 0.699462 28.7353 4.85575 32.1379H1.59084C0.713788 32.1379 0 33.0032 0 34.0665C0 35.1298 0.71373 35.9951 1.59084 35.9951H8.48438C8.5411 35.9951 8.59788 35.9842 8.65193 35.9617L10.1611 35.3523H15.8223L17.3315 35.9617C17.3856 35.9842 17.4423 35.9951 17.499 35.9951H23.8623C24.7393 35.9951 25.4531 35.1299 25.4531 34.0665C25.4531 33.0033 24.7394 32.1379 23.8623 32.1379H21.6537C22.5939 31.3684 23.3538 30.4543 23.9689 29.4341C27.2486 28.7533 29.6953 25.2742 29.6953 21.2132V19.5598C29.6953 17.99 28.6422 16.7132 27.3472 16.7132ZM10.5954 30.9596C10.5519 31.2733 10.3276 31.4951 10.0736 31.4951C10.0439 31.4951 10.0142 31.4918 9.98399 31.4861C5.77578 30.6208 3.51628 27.6849 2.65778 21.9673C2.60529 21.6182 2.79617 21.2833 3.08413 21.2203C3.3747 21.1528 3.64834 21.3881 3.70083 21.7372C4.47766 26.9103 6.41 29.4469 10.1617 30.2184C10.4506 30.2782 10.6448 30.6098 10.5954 30.9596ZM28.6348 21.2132C28.6348 24.2295 27.0408 26.8723 24.7738 27.8616C24.7887 27.8275 24.7993 27.7909 24.8136 27.7569C24.9372 27.4644 25.0496 27.1655 25.1562 26.862C25.1864 26.7759 25.2193 26.6916 25.2479 26.6049C25.3519 26.2931 25.4447 25.9749 25.5327 25.6528C25.556 25.5685 25.5825 25.4856 25.6048 25.4008C25.6833 25.0974 25.7517 24.7875 25.8174 24.477C25.8402 24.3696 25.8678 24.2642 25.889 24.1569C25.9309 23.9441 25.9643 23.7275 26.0014 23.5121C26.3248 21.6279 26.4473 19.7225 26.4892 17.999H27.3472C28.0572 17.999 28.6347 18.6991 28.6347 19.5598V21.2132H28.6348Z" fill="#12CB24"/>
<path d="M19.6111 24.4494H21.7327L21.7364 20.2908L20.6759 19.4255L19.6111 20.2921V24.4494Z" fill="#12CB24"/>
</g>
<g clip-path="url(#clip1)">
<path d="M51.7753 5.32545C50.9762 6.24859 50.5642 7.23922 50.5509 8.27035C50.5371 9.32911 50.9449 10.3763 51.7636 11.3843C51.867 11.5122 52.0044 11.5766 52.1412 11.5766C52.2753 11.5766 52.41 11.5148 52.5134 11.3914C52.7218 11.1427 52.7245 10.7357 52.5187 10.4824C51.9073 9.72968 51.6019 8.99231 51.6114 8.29095C51.6199 7.61722 51.9211 6.93258 52.5023 6.26082C53.3162 5.34282 53.7341 4.34319 53.7442 3.28893C53.7548 2.21216 53.3401 1.1688 52.5119 0.1878C52.303 -0.0590665 51.9667 -0.0558322 51.7621 0.198699C51.5574 0.452597 51.5611 0.859564 51.7705 1.1077C52.384 1.83346 52.6911 2.56183 52.6837 3.27346C52.6773 3.96196 52.3729 4.65046 51.7753 5.32545Z" fill="#12CB24"/>
<path d="M57.5958 5.32546C56.7967 6.24859 56.3847 7.23923 56.3714 8.27036C56.3576 9.32912 56.7654 10.3764 57.5842 11.3843C57.6876 11.5122 57.8249 11.5766 57.9618 11.5766C58.0959 11.5766 58.2306 11.5148 58.334 11.3915C58.5424 11.1427 58.545 10.7357 58.3393 10.4825C57.7278 9.72969 57.4224 8.99232 57.432 8.29096C57.4405 7.61722 57.7416 6.93259 58.3229 6.26083C59.141 5.3377 59.5611 4.3342 59.5711 3.27733C59.5817 2.2031 59.1692 1.1636 58.3446 0.187739C58.1357 -0.0591276 57.7995 -0.0558932 57.5948 0.198638C57.3901 0.452536 57.3944 0.859503 57.6038 1.10764C58.2125 1.82827 58.5174 2.55277 58.5105 3.26187C58.5037 3.95367 58.1977 4.64596 57.5958 5.32546Z" fill="#12CB24"/>
<path d="M46.4601 5.32546C45.661 6.24859 45.249 7.23923 45.2357 8.27036C45.2219 9.32912 45.6297 10.3764 46.4484 11.3843C46.5519 11.5122 46.6892 11.5766 46.826 11.5766C46.9602 11.5766 47.0948 11.5148 47.1982 11.3915C47.4066 11.1427 47.4093 10.7357 47.2035 10.4825C46.5921 9.72969 46.2867 8.99232 46.2963 8.29096C46.3047 7.61722 46.6059 6.93259 47.1871 6.26083C48.0053 5.3377 48.4253 4.3342 48.4354 3.27733C48.446 2.2031 48.0334 1.1636 47.2089 0.187739C46.9999 -0.0591276 46.6637 -0.0558932 46.4591 0.198638C46.2544 0.452536 46.2586 0.859503 46.468 1.10764C47.0768 1.82827 47.3817 2.55277 47.3748 3.26187C47.3679 3.95367 47.0619 4.64596 46.4601 5.32546Z" fill="#12CB24"/>
<path d="M66.234 16.7132H65.3956C65.3966 16.3712 65.2885 16.0491 65.0891 15.8055C64.8881 15.5593 64.6198 15.4236 64.334 15.4236H60.0934V18.3088L61.4498 19.4164C61.5962 19.536 61.6842 19.7359 61.6837 19.95L61.6795 25.0929C61.6789 25.4477 61.4419 25.7351 61.1492 25.7351H57.9675C57.6748 25.7351 57.4373 25.4477 57.4373 25.0922V19.9494C57.4373 19.7353 57.5253 19.5354 57.6716 19.4158L59.0329 18.3081V15.4237H39.9489C39.6631 15.4237 39.3948 15.5593 39.1938 15.8056C38.9934 16.0505 38.8842 16.3752 38.8868 16.7191C38.9276 22.5196 39.5862 28.7353 43.7425 32.1379H40.4776C39.6005 32.1379 38.8867 33.0032 38.8867 34.0665C38.8867 35.1298 39.6004 35.9951 40.4776 35.9951H47.3711C47.4278 35.9951 47.4846 35.9842 47.5387 35.9617L49.0478 35.3523H54.709L56.2182 35.9617C56.2723 35.9842 56.329 35.9951 56.3857 35.9951H62.749C63.6261 35.9951 64.3398 35.1299 64.3398 34.0665C64.3398 33.0033 63.6261 32.1379 62.749 32.1379H60.5404C61.4806 31.3684 62.2405 30.4543 62.8556 29.4341C66.1354 28.7533 68.582 25.2742 68.582 21.2132V19.5598C68.582 17.99 67.5289 16.7132 66.234 16.7132ZM49.4821 30.9596C49.4386 31.2733 49.2143 31.4951 48.9603 31.4951C48.9306 31.4951 48.9009 31.4918 48.8707 31.4861C44.6625 30.6208 42.403 27.6849 41.5445 21.9673C41.492 21.6182 41.6829 21.2833 41.9708 21.2203C42.2614 21.1528 42.5351 21.3881 42.5875 21.7372C43.3644 26.9103 45.2967 29.4469 49.0484 30.2184C49.3374 30.2782 49.5315 30.6098 49.4821 30.9596ZM67.5215 21.2132C67.5215 24.2295 65.9275 26.8723 63.6606 27.8616C63.6754 27.8275 63.686 27.7909 63.7004 27.7569C63.8239 27.4644 63.9363 27.1655 64.0429 26.862C64.0731 26.7759 64.106 26.6916 64.1346 26.6049C64.2386 26.2931 64.3314 25.9749 64.4194 25.6528C64.4427 25.5685 64.4692 25.4856 64.4915 25.4008C64.57 25.0974 64.6384 24.7875 64.7041 24.477C64.7269 24.3696 64.7545 24.2642 64.7757 24.1569C64.8176 23.9441 64.851 23.7275 64.8881 23.5121C65.2116 21.6279 65.3341 19.7225 65.3759 17.999H66.2339C66.9439 17.999 67.5214 18.6991 67.5214 19.5598V21.2132H67.5215Z" fill="#12CB24"/>
<path d="M58.4978 24.4494H60.6194L60.6232 20.2908L59.5626 19.4255L58.4978 20.2921V24.4494Z" fill="#12CB24"/>
</g>
<g clip-path="url(#clip2)">
<path d="M87.7753 5.32545C86.9762 6.24859 86.5642 7.23922 86.5509 8.27035C86.5371 9.32911 86.9449 10.3763 87.7636 11.3843C87.867 11.5122 88.0044 11.5766 88.1412 11.5766C88.2753 11.5766 88.41 11.5148 88.5134 11.3914C88.7218 11.1427 88.7245 10.7357 88.5187 10.4824C87.9073 9.72968 87.6019 8.99231 87.6114 8.29095C87.6199 7.61722 87.9211 6.93258 88.5023 6.26082C89.3162 5.34282 89.7341 4.34319 89.7442 3.28893C89.7548 2.21216 89.3401 1.1688 88.5119 0.1878C88.303 -0.0590665 87.9667 -0.0558322 87.7621 0.198699C87.5574 0.452597 87.5611 0.859564 87.7705 1.1077C88.384 1.83346 88.6911 2.56183 88.6837 3.27346C88.6773 3.96196 88.3729 4.65046 87.7753 5.32545Z" fill="#12CB24"/>
<path d="M93.5958 5.32546C92.7967 6.24859 92.3847 7.23923 92.3714 8.27036C92.3576 9.32912 92.7654 10.3764 93.5842 11.3843C93.6876 11.5122 93.8249 11.5766 93.9618 11.5766C94.0959 11.5766 94.2306 11.5148 94.334 11.3915C94.5424 11.1427 94.545 10.7357 94.3393 10.4825C93.7278 9.72969 93.4224 8.99232 93.432 8.29096C93.4405 7.61722 93.7416 6.93259 94.3229 6.26083C95.141 5.3377 95.5611 4.3342 95.5711 3.27733C95.5817 2.2031 95.1692 1.1636 94.3446 0.187739C94.1357 -0.0591276 93.7995 -0.0558932 93.5948 0.198638C93.3901 0.452536 93.3944 0.859503 93.6038 1.10764C94.2125 1.82827 94.5174 2.55277 94.5105 3.26187C94.5037 3.95367 94.1977 4.64596 93.5958 5.32546Z" fill="#12CB24"/>
<path d="M82.4601 5.32546C81.661 6.24859 81.249 7.23923 81.2357 8.27036C81.2219 9.32912 81.6297 10.3764 82.4484 11.3843C82.5519 11.5122 82.6892 11.5766 82.826 11.5766C82.9602 11.5766 83.0948 11.5148 83.1982 11.3915C83.4066 11.1427 83.4093 10.7357 83.2035 10.4825C82.5921 9.72969 82.2867 8.99232 82.2963 8.29096C82.3047 7.61722 82.6059 6.93259 83.1871 6.26083C84.0053 5.3377 84.4253 4.3342 84.4354 3.27733C84.446 2.2031 84.0334 1.1636 83.2089 0.187739C82.9999 -0.0591276 82.6637 -0.0558932 82.4591 0.198638C82.2544 0.452536 82.2586 0.859503 82.468 1.10764C83.0768 1.82827 83.3817 2.55277 83.3748 3.26187C83.3679 3.95367 83.0619 4.64596 82.4601 5.32546Z" fill="#12CB24"/>
<path d="M102.234 16.7132H101.396C101.397 16.3712 101.288 16.0491 101.089 15.8055C100.888 15.5593 100.62 15.4236 100.334 15.4236H96.0934V18.3088L97.4498 19.4164C97.5962 19.536 97.6842 19.7359 97.6837 19.95L97.6795 25.0929C97.6789 25.4477 97.4419 25.7351 97.1492 25.7351H93.9675C93.6748 25.7351 93.4373 25.4477 93.4373 25.0922V19.9494C93.4373 19.7353 93.5253 19.5354 93.6716 19.4158L95.0329 18.3081V15.4237H75.9489C75.6631 15.4237 75.3948 15.5593 75.1938 15.8056C74.9934 16.0505 74.8842 16.3752 74.8868 16.7191C74.9276 22.5196 75.5862 28.7353 79.7425 32.1379H76.4776C75.6005 32.1379 74.8867 33.0032 74.8867 34.0665C74.8867 35.1298 75.6004 35.9951 76.4776 35.9951H83.3711C83.4278 35.9951 83.4846 35.9842 83.5387 35.9617L85.0478 35.3523H90.709L92.2182 35.9617C92.2723 35.9842 92.329 35.9951 92.3857 35.9951H98.749C99.6261 35.9951 100.34 35.1299 100.34 34.0665C100.34 33.0033 99.6261 32.1379 98.749 32.1379H96.5404C97.4806 31.3684 98.2405 30.4543 98.8556 29.4341C102.135 28.7533 104.582 25.2742 104.582 21.2132V19.5598C104.582 17.99 103.529 16.7132 102.234 16.7132ZM85.4821 30.9596C85.4386 31.2733 85.2143 31.4951 84.9603 31.4951C84.9306 31.4951 84.9009 31.4918 84.8707 31.4861C80.6625 30.6208 78.403 27.6849 77.5445 21.9673C77.492 21.6182 77.6829 21.2833 77.9708 21.2203C78.2614 21.1528 78.5351 21.3881 78.5875 21.7372C79.3644 26.9103 81.2967 29.4469 85.0484 30.2184C85.3374 30.2782 85.5315 30.6098 85.4821 30.9596ZM103.521 21.2132C103.521 24.2295 101.927 26.8723 99.6606 27.8616C99.6754 27.8275 99.686 27.7909 99.7004 27.7569C99.8239 27.4644 99.9363 27.1655 100.043 26.862C100.073 26.7759 100.106 26.6916 100.135 26.6049C100.239 26.2931 100.331 25.9749 100.419 25.6528C100.443 25.5685 100.469 25.4856 100.492 25.4008C100.57 25.0974 100.638 24.7875 100.704 24.477C100.727 24.3696 100.755 24.2642 100.776 24.1569C100.818 23.9441 100.851 23.7275 100.888 23.5121C101.212 21.6279 101.334 19.7225 101.376 17.999H102.234C102.944 17.999 103.521 18.6991 103.521 19.5598V21.2132H103.521Z" fill="#12CB24"/>
<path d="M94.4978 24.4494H96.6194L96.6232 20.2908L95.5626 19.4255L94.4978 20.2921V24.4494Z" fill="#12CB24"/>
</g>
<g clip-path="url(#clip3)">
<path d="M180.572 30.4798H173.867C175.569 29.7426 176.872 28.6944 177.866 27.4262C181.932 26.767 183.753 23.1301 183.753 19.7828C183.753 17.41 182.534 15.4289 180.955 15.0825C180.955 15.0645 180.955 15.0465 180.956 15.0286C180.956 14.7315 180.846 14.4343 180.626 14.1966C180.462 13.9589 180.133 13.84 179.858 13.84H167.242H154.625C154.35 13.84 154.076 13.9589 153.857 14.1966C153.637 14.4343 153.528 14.7315 153.528 15.0286C153.57 21.3799 154.6 27.8735 160.616 30.4798H153.857C153.089 30.4798 152.43 31.193 152.43 32.025C152.43 32.7381 152.869 33.273 153.692 33.4512L160.604 34.0455C160.878 34.0455 160.933 34.1644 160.988 34.2832C161.262 34.8775 161.811 35.2341 162.414 35.2341H171.52C172.124 35.2341 172.672 34.8775 172.837 34.2832C172.892 34.1643 173.001 34.0455 173.221 34.0455L180.736 33.4512H180.791C181.559 33.273 181.998 32.7381 181.998 32.025C181.998 31.193 181.394 30.4798 180.572 30.4798ZM182.601 19.7829C182.601 22.1006 181.614 24.8936 178.871 25.9039C180.517 22.992 180.846 19.4263 180.956 16.3361C181.888 16.6926 182.601 18.1189 182.601 19.7829ZM173.824 18.2377L175.47 20.0206V23.9428H172.179V20.0206L173.824 18.2377ZM154.625 15.0286H167.242H173.276V17.168L171.246 19.3668C171.136 19.4857 171.081 19.6045 171.081 19.7828V24.537C171.081 24.8936 171.301 25.1314 171.63 25.1314H176.018C176.348 25.1314 176.567 24.8936 176.567 24.537V19.7828C176.567 19.6045 176.512 19.4857 176.403 19.3668L174.373 17.168V15.0286H179.858C179.804 23.0514 178.213 30.4798 167.242 30.4798C156.271 30.4798 154.68 23.0514 154.625 15.0286ZM180.736 32.2627L173.276 32.857C172.727 32.9164 172.233 33.2136 172.014 33.7484C171.904 33.9266 171.74 34.0455 171.575 34.0455H162.414C162.25 34.0455 162.085 33.9266 161.975 33.7484C161.756 33.2135 161.262 32.9164 160.714 32.857L153.802 32.2627C153.528 32.2032 153.528 32.0844 153.528 32.025C153.528 31.8467 153.692 31.6684 153.857 31.6684H180.681C180.846 31.6684 181.01 31.8466 181.01 32.025C181.01 32.0844 181.01 32.2032 180.736 32.2627Z" fill="#615E5E"/>
<path d="M166.309 5.69851C165.486 6.5899 165.047 7.48136 165.047 8.4322C165.047 9.38303 165.486 10.3339 166.309 11.2847C166.419 11.4036 166.528 11.463 166.693 11.463C166.803 11.463 166.967 11.4035 167.077 11.2847C167.296 11.047 167.296 10.6904 167.077 10.4527C166.473 9.73956 166.144 9.08588 166.144 8.43213C166.144 7.77838 166.473 7.1247 167.077 6.53046C167.9 5.69844 168.338 4.74761 168.338 3.79678C168.338 2.7865 167.9 1.83566 167.077 0.944273C166.857 0.706564 166.528 0.706564 166.309 0.944273C166.089 1.18198 166.089 1.53858 166.309 1.77629C166.912 2.48941 167.241 3.14309 167.241 3.79684C167.241 4.45059 166.912 5.10421 166.309 5.69851Z" fill="#615E5E"/>
<path d="M172.892 5.69851C172.069 6.5899 171.63 7.48136 171.63 8.4322C171.63 9.38303 172.069 10.3339 172.892 11.2847C173.001 11.4036 173.111 11.463 173.276 11.463C173.385 11.463 173.55 11.4035 173.66 11.2847C173.879 11.047 173.879 10.6904 173.66 10.4527C173.056 9.73956 172.727 9.08588 172.727 8.43213C172.727 7.77838 173.056 7.1247 173.66 6.53046C174.482 5.69844 174.921 4.74761 174.921 3.79678C174.921 2.7865 174.482 1.83566 173.66 0.944273C173.44 0.706564 173.111 0.706564 172.892 0.944273C172.672 1.18198 172.672 1.53858 172.892 1.77629C173.495 2.48941 173.824 3.14309 173.824 3.79684C173.824 4.45059 173.495 5.10421 172.892 5.69851Z" fill="#615E5E"/>
<path d="M160.823 5.69851C160 6.5899 159.562 7.48136 159.562 8.4322C159.562 9.38303 160 10.3339 160.823 11.2847C160.933 11.4036 161.043 11.463 161.207 11.463C161.317 11.463 161.482 11.4035 161.591 11.2847C161.811 11.047 161.811 10.6904 161.591 10.4527C160.988 9.73956 160.659 9.08588 160.659 8.43213C160.659 7.77838 160.988 7.1247 161.591 6.53046C162.414 5.69844 162.853 4.74761 162.853 3.79678C162.853 2.7865 162.414 1.83566 161.591 0.944273C161.372 0.706564 161.043 0.706564 160.823 0.944273C160.604 1.18198 160.604 1.53858 160.823 1.77629C161.427 2.48941 161.756 3.14309 161.756 3.79684C161.756 4.45059 161.427 5.10421 160.823 5.69851Z" fill="#615E5E"/>
<path d="M164.06 27.5085C160.165 26.7954 158.19 24.4183 157.367 19.664C157.313 19.3669 156.983 19.1292 156.709 19.1886C156.435 19.2481 156.215 19.6046 156.27 19.9017C157.148 25.1908 159.507 27.8651 163.84 28.697C163.895 28.697 163.895 28.697 163.95 28.697C164.224 28.697 164.444 28.5188 164.499 28.2216C164.554 27.8651 164.334 27.5679 164.06 27.5085Z" fill="#615E5E"/>
</g>
<g clip-path="url(#clip4)">
<path d="M141.572 30.4798H134.867C136.569 29.7426 137.872 28.6944 138.866 27.4262C142.932 26.767 144.753 23.1301 144.753 19.7828C144.753 17.41 143.534 15.4289 141.955 15.0825C141.955 15.0645 141.955 15.0465 141.956 15.0286C141.956 14.7315 141.846 14.4343 141.626 14.1966C141.462 13.9589 141.133 13.84 140.858 13.84H128.242H115.625C115.35 13.84 115.076 13.9589 114.857 14.1966C114.637 14.4343 114.528 14.7315 114.528 15.0286C114.57 21.3799 115.6 27.8735 121.616 30.4798H114.857C114.089 30.4798 113.43 31.193 113.43 32.025C113.43 32.7381 113.869 33.273 114.692 33.4512L121.604 34.0455C121.878 34.0455 121.933 34.1644 121.988 34.2832C122.262 34.8775 122.811 35.2341 123.414 35.2341H132.52C133.124 35.2341 133.672 34.8775 133.837 34.2832C133.892 34.1643 134.001 34.0455 134.221 34.0455L141.736 33.4512H141.791C142.559 33.273 142.998 32.7381 142.998 32.025C142.998 31.193 142.394 30.4798 141.572 30.4798ZM143.601 19.7829C143.601 22.1006 142.614 24.8936 139.871 25.9039C141.517 22.992 141.846 19.4263 141.956 16.3361C142.888 16.6926 143.601 18.1189 143.601 19.7829ZM134.824 18.2377L136.47 20.0206V23.9428H133.179V20.0206L134.824 18.2377ZM115.625 15.0286H128.242H134.276V17.168L132.246 19.3668C132.136 19.4857 132.081 19.6045 132.081 19.7828V24.537C132.081 24.8936 132.301 25.1314 132.63 25.1314H137.018C137.348 25.1314 137.567 24.8936 137.567 24.537V19.7828C137.567 19.6045 137.512 19.4857 137.403 19.3668L135.373 17.168V15.0286H140.858C140.804 23.0514 139.213 30.4798 128.242 30.4798C117.271 30.4798 115.68 23.0514 115.625 15.0286ZM141.736 32.2627L134.276 32.857C133.727 32.9164 133.233 33.2136 133.014 33.7484C132.904 33.9266 132.74 34.0455 132.575 34.0455H123.414C123.25 34.0455 123.085 33.9266 122.975 33.7484C122.756 33.2135 122.262 32.9164 121.714 32.857L114.802 32.2627C114.528 32.2032 114.528 32.0844 114.528 32.025C114.528 31.8467 114.692 31.6684 114.857 31.6684H141.681C141.846 31.6684 142.01 31.8466 142.01 32.025C142.01 32.0844 142.01 32.2032 141.736 32.2627Z" fill="#615E5E"/>
<path d="M127.309 5.69851C126.486 6.5899 126.047 7.48136 126.047 8.4322C126.047 9.38303 126.486 10.3339 127.309 11.2847C127.419 11.4036 127.528 11.463 127.693 11.463C127.803 11.463 127.967 11.4035 128.077 11.2847C128.296 11.047 128.296 10.6904 128.077 10.4527C127.473 9.73956 127.144 9.08588 127.144 8.43213C127.144 7.77838 127.473 7.1247 128.077 6.53046C128.9 5.69844 129.338 4.74761 129.338 3.79678C129.338 2.7865 128.9 1.83566 128.077 0.944273C127.857 0.706564 127.528 0.706564 127.309 0.944273C127.089 1.18198 127.089 1.53858 127.309 1.77629C127.912 2.48941 128.241 3.14309 128.241 3.79684C128.241 4.45059 127.912 5.10421 127.309 5.69851Z" fill="#615E5E"/>
<path d="M133.892 5.69851C133.069 6.5899 132.63 7.48136 132.63 8.4322C132.63 9.38303 133.069 10.3339 133.892 11.2847C134.001 11.4036 134.111 11.463 134.276 11.463C134.385 11.463 134.55 11.4035 134.66 11.2847C134.879 11.047 134.879 10.6904 134.66 10.4527C134.056 9.73956 133.727 9.08588 133.727 8.43213C133.727 7.77838 134.056 7.1247 134.66 6.53046C135.482 5.69844 135.921 4.74761 135.921 3.79678C135.921 2.7865 135.482 1.83566 134.66 0.944273C134.44 0.706564 134.111 0.706564 133.892 0.944273C133.672 1.18198 133.672 1.53858 133.892 1.77629C134.495 2.48941 134.824 3.14309 134.824 3.79684C134.824 4.45059 134.495 5.10421 133.892 5.69851Z" fill="#615E5E"/>
<path d="M121.823 5.69851C121 6.5899 120.562 7.48136 120.562 8.4322C120.562 9.38303 121 10.3339 121.823 11.2847C121.933 11.4036 122.043 11.463 122.207 11.463C122.317 11.463 122.482 11.4035 122.591 11.2847C122.811 11.047 122.811 10.6904 122.591 10.4527C121.988 9.73956 121.659 9.08588 121.659 8.43213C121.659 7.77838 121.988 7.1247 122.591 6.53046C123.414 5.69844 123.853 4.74761 123.853 3.79678C123.853 2.7865 123.414 1.83566 122.591 0.944273C122.372 0.706564 122.043 0.706564 121.823 0.944273C121.604 1.18198 121.604 1.53858 121.823 1.77629C122.427 2.48941 122.756 3.14309 122.756 3.79684C122.756 4.45059 122.427 5.10421 121.823 5.69851Z" fill="#615E5E"/>
<path d="M125.06 27.5085C121.165 26.7954 119.19 24.4183 118.367 19.664C118.313 19.3669 117.983 19.1292 117.709 19.1886C117.435 19.2481 117.215 19.6046 117.27 19.9017C118.148 25.1908 120.507 27.8651 124.84 28.697C124.895 28.697 124.895 28.697 124.95 28.697C125.224 28.697 125.444 28.5188 125.499 28.2216C125.554 27.8651 125.334 27.5679 125.06 27.5085Z" fill="#615E5E"/>
</g>
<defs>
<clipPath id="clip0">
<rect width="29.6953" height="36" fill="white"/>
</clipPath>
<clipPath id="clip1">
<rect width="29.6953" height="36" fill="white" transform="translate(38.8867)"/>
</clipPath>
<clipPath id="clip2">
<rect width="29.6953" height="36" fill="white" transform="translate(74.8867)"/>
</clipPath>
<clipPath id="clip3">
<rect width="31.8164" height="34.4681" fill="white" transform="translate(152.184 0.765991)"/>
</clipPath>
<clipPath id="clip4">
<rect width="31.8164" height="34.4681" fill="white" transform="translate(113.184 0.765991)"/>
</clipPath>
</defs>
</svg>
