<svg width="305" height="43" viewBox="0 0 305 43" fill="none" xmlns="http://www.w3.org/2000/svg">
<g clip-path="url(#clip0)">
<path d="M139.947 31.2458H132.944C134.721 30.5085 136.082 29.4603 137.121 28.1921C141.367 27.533 143.27 23.896 143.27 20.5487C143.27 18.176 141.996 16.1949 140.347 15.8484C140.347 15.8304 140.347 15.8125 140.348 15.7946C140.348 15.4974 140.233 15.2003 140.004 14.9626C139.832 14.7248 139.488 14.606 139.202 14.606H126.024H112.846C112.56 14.606 112.274 14.7248 112.044 14.9626C111.815 15.2003 111.701 15.4974 111.701 15.7946C111.745 22.1458 112.82 28.6395 119.105 31.2458H112.044C111.242 31.2458 110.555 31.9589 110.555 32.7909C110.555 33.504 111.013 34.0389 111.872 34.2172L119.091 34.8115C119.378 34.8115 119.435 34.9303 119.493 35.0492C119.779 35.6435 120.352 36 120.982 36H130.493C131.123 36 131.696 35.6434 131.868 35.0492C131.925 34.9303 132.04 34.8115 132.269 34.8115L140.118 34.2172H140.176C140.978 34.0389 141.436 33.504 141.436 32.7909C141.436 31.9589 140.806 31.2458 139.947 31.2458ZM142.066 20.5488C142.066 22.8665 141.035 25.6596 138.17 26.6699C139.889 23.7579 140.233 20.1922 140.348 17.102C141.322 17.4585 142.066 18.8848 142.066 20.5488ZM132.899 19.0037L134.618 20.7865V24.7087H131.18V20.7865L132.899 19.0037ZM112.846 15.7946H126.024H132.326V17.9339L130.206 20.1328C130.092 20.2517 130.035 20.3705 130.035 20.5487V25.303C130.035 25.6596 130.264 25.8973 130.608 25.8973H135.191C135.535 25.8973 135.764 25.6596 135.764 25.303V20.5487C135.764 20.3705 135.707 20.2516 135.592 20.1328L133.472 17.9339V15.7946H139.202C139.144 23.8173 137.483 31.2458 126.024 31.2458C114.565 31.2458 112.904 23.8173 112.846 15.7946ZM140.118 33.0286L132.326 33.6229C131.753 33.6824 131.238 33.9795 131.009 34.5143C130.894 34.6926 130.722 34.8115 130.55 34.8115H120.982C120.81 34.8115 120.638 34.6926 120.524 34.5143C120.295 33.9794 119.779 33.6823 119.206 33.6229L111.987 33.0286C111.701 32.9692 111.701 32.8503 111.701 32.7909C111.701 32.6126 111.872 32.4343 112.044 32.4343H140.061C140.233 32.4343 140.405 32.6126 140.405 32.7909C140.405 32.8503 140.405 32.9692 140.118 33.0286Z" fill="#615E5E"/>
<path d="M125.05 6.46442C124.191 7.35581 123.732 8.24727 123.732 9.1981C123.732 10.1489 124.191 11.0998 125.05 12.0506C125.165 12.1695 125.279 12.2289 125.451 12.2289C125.566 12.2289 125.738 12.1694 125.852 12.0506C126.081 11.8129 126.081 11.4563 125.852 11.2186C125.222 10.5055 124.878 9.85178 124.878 9.19804C124.878 8.54429 125.222 7.8906 125.852 7.29637C126.711 6.46435 127.17 5.51352 127.17 4.56268C127.17 3.55241 126.711 2.60157 125.852 1.71018C125.623 1.47247 125.279 1.47247 125.05 1.71018C124.821 1.94789 124.821 2.30449 125.05 2.54219C125.68 3.25532 126.024 3.909 126.024 4.56275C126.024 5.2165 125.68 5.87011 125.05 6.46442Z" fill="#615E5E"/>
<path d="M131.925 6.46442C131.066 7.35581 130.608 8.24727 130.608 9.1981C130.608 10.1489 131.066 11.0998 131.925 12.0506C132.04 12.1695 132.154 12.2289 132.326 12.2289C132.441 12.2289 132.613 12.1694 132.727 12.0506C132.957 11.8129 132.957 11.4563 132.727 11.2186C132.097 10.5055 131.753 9.85178 131.753 9.19804C131.753 8.54429 132.097 7.8906 132.727 7.29637C133.587 6.46435 134.045 5.51352 134.045 4.56268C134.045 3.55241 133.587 2.60157 132.727 1.71018C132.498 1.47247 132.154 1.47247 131.925 1.71018C131.696 1.94789 131.696 2.30449 131.925 2.54219C132.555 3.25532 132.899 3.909 132.899 4.56275C132.899 5.2165 132.556 5.87011 131.925 6.46442Z" fill="#615E5E"/>
<path d="M119.321 6.46442C118.461 7.35581 118.003 8.24727 118.003 9.1981C118.003 10.1489 118.461 11.0998 119.321 12.0506C119.435 12.1695 119.55 12.2289 119.722 12.2289C119.836 12.2289 120.008 12.1694 120.123 12.0506C120.352 11.8129 120.352 11.4563 120.123 11.2186C119.493 10.5055 119.149 9.85178 119.149 9.19804C119.149 8.54429 119.493 7.8906 120.123 7.29637C120.982 6.46435 121.44 5.51352 121.44 4.56268C121.44 3.55241 120.982 2.60157 120.123 1.71018C119.894 1.47247 119.55 1.47247 119.321 1.71018C119.091 1.94789 119.091 2.30449 119.321 2.54219C119.951 3.25532 120.295 3.909 120.295 4.56275C120.295 5.2165 119.951 5.87011 119.321 6.46442Z" fill="#615E5E"/>
<path d="M122.701 28.2744C118.633 27.5613 116.571 25.1842 115.711 20.4299C115.654 20.1328 115.31 19.8951 115.024 19.9545C114.737 20.014 114.508 20.3705 114.565 20.6676C115.482 25.9567 117.946 28.631 122.472 29.4629C122.529 29.4629 122.529 29.4629 122.586 29.4629C122.873 29.4629 123.102 29.2847 123.159 28.9875C123.217 28.631 122.987 28.3338 122.701 28.2744Z" fill="#615E5E"/>
</g>
<g clip-path="url(#clip1)">
<path d="M12.8886 5.32544C12.0895 6.24857 11.6774 7.2392 11.6642 8.27033C11.6504 9.3291 12.0581 10.3763 12.8769 11.3843C12.9803 11.5122 13.1177 11.5766 13.2545 11.5766C13.3886 11.5766 13.5233 11.5148 13.6267 11.3914C13.8351 11.1427 13.8378 10.7357 13.632 10.4824C13.0206 9.72967 12.7151 8.9923 12.7247 8.29093C12.7332 7.6172 13.0344 6.93257 13.6156 6.2608C14.4295 5.34281 14.8474 4.34318 14.8575 3.28891C14.8681 2.21215 14.4534 1.16878 13.6251 0.187785C13.4162 -0.0590818 13.08 -0.0558474 12.8753 0.198683C12.6707 0.452581 12.6744 0.859549 12.8838 1.10768C13.4973 1.83345 13.8044 2.56181 13.7969 3.27344C13.7906 3.96194 13.4862 4.65044 12.8886 5.32544Z" fill="#12CB24"/>
<path d="M18.7091 5.32545C17.91 6.24858 17.498 7.23921 17.4847 8.27034C17.4709 9.3291 17.8787 10.3763 18.6975 11.3843C18.8009 11.5122 18.9382 11.5766 19.075 11.5766C19.2092 11.5766 19.3439 11.5148 19.4473 11.3914C19.6557 11.1427 19.6583 10.7357 19.4525 10.4824C18.8411 9.72967 18.5357 8.99231 18.5453 8.29094C18.5537 7.61721 18.8549 6.93258 19.4361 6.26081C20.2543 5.33768 20.6743 4.33418 20.6844 3.27732C20.695 2.20309 20.2824 1.16359 19.4579 0.187724C19.249 -0.0591428 18.9128 -0.0559084 18.7081 0.198622C18.5034 0.45252 18.5076 0.859488 18.7171 1.10762C19.3258 1.82825 19.6307 2.55275 19.6238 3.26185C19.617 3.95365 19.311 4.64595 18.7091 5.32545Z" fill="#12CB24"/>
<path d="M7.57338 5.32545C6.77428 6.24858 6.36225 7.23921 6.34897 8.27034C6.33517 9.3291 6.74296 10.3763 7.56172 11.3843C7.66513 11.5122 7.80247 11.5766 7.93929 11.5766C8.07344 11.5766 8.20812 11.5148 8.31153 11.3914C8.51992 11.1427 8.52258 10.7357 8.3168 10.4824C7.70538 9.72967 7.39996 8.99231 7.40953 8.29094C7.418 7.61721 7.71919 6.93258 8.30039 6.26081C9.11858 5.33768 9.5386 4.33418 9.54864 3.27732C9.55925 2.20309 9.14671 1.16359 8.32214 0.187724C8.11323 -0.0591428 7.77701 -0.0559084 7.57234 0.198622C7.36766 0.45252 7.37189 0.859488 7.58133 1.10762C8.19008 1.82825 8.49498 2.55275 8.48807 3.26185C8.48123 3.95365 8.17523 4.64595 7.57338 5.32545Z" fill="#12CB24"/>
<path d="M27.3472 16.7133H26.5089C26.5099 16.3713 26.4018 16.0492 26.2024 15.8055C26.0014 15.5593 25.7331 15.4237 25.4473 15.4237H21.2067V18.3088L22.5631 19.4164C22.7094 19.536 22.7975 19.7359 22.797 19.95L22.7927 25.0929C22.7922 25.4477 22.5552 25.7351 22.2625 25.7351H19.0808C18.7881 25.7351 18.5505 25.4477 18.5505 25.0922V19.9494C18.5505 19.7353 18.6386 19.5354 18.7849 19.4158L20.1461 18.3081V15.4237H1.06219C0.776368 15.4237 0.508067 15.5594 0.307102 15.8056C0.106659 16.0505 -0.00255194 16.3752 5.79985e-05 16.7191C0.040889 22.5196 0.699462 28.7353 4.85575 32.138H1.59084C0.713788 32.138 0 33.0032 0 34.0665C0 35.1298 0.71373 35.9951 1.59084 35.9951H8.48438C8.5411 35.9951 8.59788 35.9842 8.65193 35.9618L10.1611 35.3524H15.8223L17.3315 35.9618C17.3856 35.9842 17.4423 35.9951 17.499 35.9951H23.8623C24.7393 35.9951 25.4531 35.1299 25.4531 34.0665C25.4531 33.0033 24.7394 32.138 23.8623 32.138H21.6537C22.5939 31.3685 23.3538 30.4543 23.9689 29.4341C27.2486 28.7533 29.6953 25.2742 29.6953 21.2132V19.5598C29.6953 17.99 28.6422 16.7133 27.3472 16.7133ZM10.5954 30.9596C10.5519 31.2733 10.3276 31.4951 10.0736 31.4951C10.0439 31.4951 10.0142 31.4919 9.98399 31.4861C5.77578 30.6208 3.51628 27.6849 2.65778 21.9673C2.60529 21.6182 2.79617 21.2833 3.08413 21.2203C3.3747 21.1528 3.64834 21.3881 3.70083 21.7372C4.47766 26.9103 6.41 29.447 10.1617 30.2184C10.4506 30.2782 10.6448 30.6099 10.5954 30.9596ZM28.6348 21.2132C28.6348 24.2295 27.0408 26.8723 24.7738 27.8616C24.7887 27.8275 24.7993 27.7909 24.8136 27.7569C24.9372 27.4644 25.0496 27.1655 25.1562 26.862C25.1864 26.7759 25.2193 26.6916 25.2479 26.6049C25.3519 26.2931 25.4447 25.9749 25.5327 25.6528C25.556 25.5685 25.5825 25.4856 25.6048 25.4008C25.6833 25.0974 25.7517 24.7875 25.8174 24.477C25.8402 24.3696 25.8678 24.2642 25.889 24.1569C25.9309 23.9441 25.9643 23.7275 26.0014 23.5121C26.3248 21.6279 26.4473 19.7225 26.4892 17.999H27.3472C28.0572 17.999 28.6347 18.6991 28.6347 19.5598V21.2132H28.6348Z" fill="#12CB24"/>
<path d="M19.6111 24.4494H21.7327L21.7364 20.2908L20.6759 19.4256L19.6111 20.2922V24.4494Z" fill="#12CB24"/>
</g>
<g clip-path="url(#clip2)">
<path d="M51.7753 5.32544C50.9762 6.24857 50.5642 7.2392 50.5509 8.27033C50.5371 9.3291 50.9449 10.3763 51.7636 11.3843C51.867 11.5122 52.0044 11.5766 52.1412 11.5766C52.2753 11.5766 52.41 11.5148 52.5134 11.3914C52.7218 11.1427 52.7245 10.7357 52.5187 10.4824C51.9073 9.72967 51.6019 8.9923 51.6114 8.29093C51.6199 7.6172 51.9211 6.93257 52.5023 6.2608C53.3162 5.34281 53.7341 4.34318 53.7442 3.28891C53.7548 2.21215 53.3401 1.16878 52.5119 0.187785C52.303 -0.0590818 51.9667 -0.0558474 51.7621 0.198683C51.5574 0.452581 51.5611 0.859549 51.7705 1.10768C52.384 1.83345 52.6911 2.56181 52.6837 3.27344C52.6773 3.96194 52.3729 4.65044 51.7753 5.32544Z" fill="#12CB24"/>
<path d="M57.5958 5.32545C56.7967 6.24858 56.3847 7.23921 56.3714 8.27034C56.3576 9.3291 56.7654 10.3763 57.5842 11.3843C57.6876 11.5122 57.8249 11.5766 57.9618 11.5766C58.0959 11.5766 58.2306 11.5148 58.334 11.3914C58.5424 11.1427 58.545 10.7357 58.3393 10.4824C57.7278 9.72967 57.4224 8.99231 57.432 8.29094C57.4405 7.61721 57.7416 6.93258 58.3229 6.26081C59.141 5.33768 59.5611 4.33418 59.5711 3.27732C59.5817 2.20309 59.1692 1.16359 58.3446 0.187724C58.1357 -0.0591428 57.7995 -0.0559084 57.5948 0.198622C57.3901 0.45252 57.3944 0.859488 57.6038 1.10762C58.2125 1.82825 58.5174 2.55275 58.5105 3.26185C58.5037 3.95365 58.1977 4.64595 57.5958 5.32545Z" fill="#12CB24"/>
<path d="M46.4601 5.32545C45.661 6.24858 45.249 7.23921 45.2357 8.27034C45.2219 9.3291 45.6297 10.3763 46.4484 11.3843C46.5519 11.5122 46.6892 11.5766 46.826 11.5766C46.9602 11.5766 47.0948 11.5148 47.1982 11.3914C47.4066 11.1427 47.4093 10.7357 47.2035 10.4824C46.5921 9.72967 46.2867 8.99231 46.2963 8.29094C46.3047 7.61721 46.6059 6.93258 47.1871 6.26081C48.0053 5.33768 48.4253 4.33418 48.4354 3.27732C48.446 2.20309 48.0334 1.16359 47.2089 0.187724C46.9999 -0.0591428 46.6637 -0.0559084 46.4591 0.198622C46.2544 0.45252 46.2586 0.859488 46.468 1.10762C47.0768 1.82825 47.3817 2.55275 47.3748 3.26185C47.3679 3.95365 47.0619 4.64595 46.4601 5.32545Z" fill="#12CB24"/>
<path d="M66.234 16.7133H65.3956C65.3966 16.3713 65.2885 16.0492 65.0891 15.8055C64.8881 15.5593 64.6198 15.4237 64.334 15.4237H60.0934V18.3088L61.4498 19.4164C61.5962 19.536 61.6842 19.7359 61.6837 19.95L61.6795 25.0929C61.6789 25.4477 61.4419 25.7351 61.1492 25.7351H57.9675C57.6748 25.7351 57.4373 25.4477 57.4373 25.0922V19.9494C57.4373 19.7353 57.5253 19.5354 57.6716 19.4158L59.0329 18.3081V15.4237H39.9489C39.6631 15.4237 39.3948 15.5594 39.1938 15.8056C38.9934 16.0505 38.8842 16.3752 38.8868 16.7191C38.9276 22.5196 39.5862 28.7353 43.7425 32.138H40.4776C39.6005 32.138 38.8867 33.0032 38.8867 34.0665C38.8867 35.1298 39.6004 35.9951 40.4776 35.9951H47.3711C47.4278 35.9951 47.4846 35.9842 47.5387 35.9618L49.0478 35.3524H54.709L56.2182 35.9618C56.2723 35.9842 56.329 35.9951 56.3857 35.9951H62.749C63.6261 35.9951 64.3398 35.1299 64.3398 34.0665C64.3398 33.0033 63.6261 32.138 62.749 32.138H60.5404C61.4806 31.3685 62.2405 30.4543 62.8556 29.4341C66.1354 28.7533 68.582 25.2742 68.582 21.2132V19.5598C68.582 17.99 67.5289 16.7133 66.234 16.7133ZM49.4821 30.9596C49.4386 31.2733 49.2143 31.4951 48.9603 31.4951C48.9306 31.4951 48.9009 31.4919 48.8707 31.4861C44.6625 30.6208 42.403 27.6849 41.5445 21.9673C41.492 21.6182 41.6829 21.2833 41.9708 21.2203C42.2614 21.1528 42.5351 21.3881 42.5875 21.7372C43.3644 26.9103 45.2967 29.447 49.0484 30.2184C49.3374 30.2782 49.5315 30.6099 49.4821 30.9596ZM67.5215 21.2132C67.5215 24.2295 65.9275 26.8723 63.6606 27.8616C63.6754 27.8275 63.686 27.7909 63.7004 27.7569C63.8239 27.4644 63.9363 27.1655 64.0429 26.862C64.0731 26.7759 64.106 26.6916 64.1346 26.6049C64.2386 26.2931 64.3314 25.9749 64.4194 25.6528C64.4427 25.5685 64.4692 25.4856 64.4915 25.4008C64.57 25.0974 64.6384 24.7875 64.7041 24.477C64.7269 24.3696 64.7545 24.2642 64.7757 24.1569C64.8176 23.9441 64.851 23.7275 64.8881 23.5121C65.2116 21.6279 65.3341 19.7225 65.3759 17.999H66.2339C66.9439 17.999 67.5214 18.6991 67.5214 19.5598V21.2132H67.5215Z" fill="#12CB24"/>
<path d="M58.4978 24.4494H60.6194L60.6232 20.2908L59.5626 19.4256L58.4978 20.2922V24.4494Z" fill="#12CB24"/>
</g>
<g clip-path="url(#clip3)">
<path d="M87.8339 5.32544C87.0348 6.24857 86.6228 7.2392 86.6095 8.27033C86.5957 9.3291 87.0035 10.3763 87.8222 11.3843C87.9256 11.5122 88.063 11.5766 88.1998 11.5766C88.3339 11.5766 88.4686 11.5148 88.572 11.3914C88.7804 11.1427 88.7831 10.7357 88.5773 10.4824C87.9659 9.72967 87.6605 8.9923 87.67 8.29093C87.6785 7.6172 87.9797 6.93257 88.5609 6.2608C89.3748 5.34281 89.7927 4.34318 89.8028 3.28891C89.8134 2.21215 89.3987 1.16878 88.5705 0.187785C88.3615 -0.0590818 88.0253 -0.0558474 87.8207 0.198683C87.616 0.452581 87.6197 0.859549 87.8291 1.10768C88.4426 1.83345 88.7497 2.56181 88.7422 3.27344C88.7359 3.96194 88.4315 4.65044 87.8339 5.32544Z" fill="#12CB24"/>
<path d="M93.6544 5.32545C92.8553 6.24858 92.4433 7.23921 92.43 8.27034C92.4162 9.3291 92.824 10.3763 93.6428 11.3843C93.7462 11.5122 93.8835 11.5766 94.0203 11.5766C94.1545 11.5766 94.2892 11.5148 94.3926 11.3914C94.601 11.1427 94.6036 10.7357 94.3979 10.4824C93.7864 9.72967 93.481 8.99231 93.4906 8.29094C93.4991 7.61721 93.8002 6.93258 94.3814 6.26081C95.1996 5.33768 95.6197 4.33418 95.6297 3.27732C95.6403 2.20309 95.2278 1.16359 94.4032 0.187724C94.1943 -0.0591428 93.8581 -0.0559084 93.6534 0.198622C93.4487 0.45252 93.4529 0.859488 93.6624 1.10762C94.2711 1.82825 94.576 2.55275 94.5691 3.26185C94.5623 3.95365 94.2563 4.64595 93.6544 5.32545Z" fill="#12CB24"/>
<path d="M82.5187 5.32545C81.7196 6.24858 81.3076 7.23921 81.2943 8.27034C81.2805 9.3291 81.6883 10.3763 82.507 11.3843C82.6104 11.5122 82.7478 11.5766 82.8846 11.5766C83.0188 11.5766 83.1534 11.5148 83.2568 11.3914C83.4652 11.1427 83.4679 10.7357 83.2621 10.4824C82.6507 9.72967 82.3453 8.99231 82.3548 8.29094C82.3633 7.61721 82.6645 6.93258 83.2457 6.26081C84.0639 5.33768 84.4839 4.33418 84.4939 3.27732C84.5046 2.20309 84.092 1.16359 83.2675 0.187724C83.0585 -0.0591428 82.7223 -0.0559084 82.5176 0.198622C82.313 0.45252 82.3172 0.859488 82.5266 1.10762C83.1354 1.82825 83.4403 2.55275 83.4334 3.26185C83.4265 3.95365 83.1205 4.64595 82.5187 5.32545Z" fill="#12CB24"/>
<path d="M102.293 16.7133H101.454C101.455 16.3713 101.347 16.0492 101.148 15.8055C100.947 15.5593 100.678 15.4237 100.393 15.4237H96.152V18.3088L97.5084 19.4164C97.6548 19.536 97.7428 19.7359 97.7423 19.95L97.738 25.0929C97.7375 25.4477 97.5005 25.7351 97.2078 25.7351H94.0261C93.7334 25.7351 93.4959 25.4477 93.4959 25.0922V19.9494C93.4959 19.7353 93.5839 19.5354 93.7302 19.4158L95.0915 18.3081V15.4237H76.0075C75.7217 15.4237 75.4534 15.5594 75.2524 15.8056C75.052 16.0505 74.9428 16.3752 74.9454 16.7191C74.9862 22.5196 75.6448 28.7353 79.8011 32.138H76.5362C75.6591 32.138 74.9453 33.0032 74.9453 34.0665C74.9453 35.1298 75.659 35.9951 76.5362 35.9951H83.4297C83.4864 35.9951 83.5432 35.9842 83.5972 35.9618L85.1064 35.3524H90.7676L92.2768 35.9618C92.3309 35.9842 92.3876 35.9951 92.4443 35.9951H98.8076C99.6846 35.9951 100.398 35.1299 100.398 34.0665C100.398 33.0033 99.6847 32.138 98.8076 32.138H96.599C97.5392 31.3685 98.2991 30.4543 98.9142 29.4341C102.194 28.7533 104.641 25.2742 104.641 21.2132V19.5598C104.641 17.99 103.587 16.7133 102.293 16.7133ZM85.5407 30.9596C85.4972 31.2733 85.2729 31.4951 85.0189 31.4951C84.9892 31.4951 84.9595 31.4919 84.9293 31.4861C80.7211 30.6208 78.4616 27.6849 77.6031 21.9673C77.5506 21.6182 77.7415 21.2833 78.0294 21.2203C78.32 21.1528 78.5937 21.3881 78.6461 21.7372C79.423 26.9103 81.3553 29.447 85.107 30.2184C85.396 30.2782 85.5901 30.6099 85.5407 30.9596ZM103.58 21.2132C103.58 24.2295 101.986 26.8723 99.7192 27.8616C99.734 27.8275 99.7446 27.7909 99.7589 27.7569C99.8825 27.4644 99.9949 27.1655 100.101 26.862C100.132 26.7759 100.165 26.6916 100.193 26.6049C100.297 26.2931 100.39 25.9749 100.478 25.6528C100.501 25.5685 100.528 25.4856 100.55 25.4008C100.629 25.0974 100.697 24.7875 100.763 24.477C100.786 24.3696 100.813 24.2642 100.834 24.1569C100.876 23.9441 100.91 23.7275 100.947 23.5121C101.27 21.6279 101.393 19.7225 101.435 17.999H102.292C103.003 17.999 103.58 18.6991 103.58 19.5598V21.2132H103.58Z" fill="#12CB24"/>
<path d="M94.5564 24.4494H96.678L96.6818 20.2908L95.6212 19.4256L94.5564 20.2922V24.4494Z" fill="#12CB24"/>
</g>
<g clip-path="url(#clip4)">
<path d="M177.572 30.4798H170.867C172.569 29.7426 173.872 28.6943 174.866 27.4261C178.932 26.767 180.753 23.13 180.753 19.7828C180.753 17.41 179.534 15.4289 177.955 15.0825C177.955 15.0645 177.955 15.0465 177.956 15.0286C177.956 14.7315 177.846 14.4343 177.626 14.1966C177.462 13.9589 177.133 13.84 176.858 13.84H164.242H151.625C151.35 13.84 151.076 13.9589 150.857 14.1966C150.637 14.4343 150.528 14.7315 150.528 15.0286C150.57 21.3798 151.6 27.8735 157.616 30.4798H150.857C150.089 30.4798 149.43 31.1929 149.43 32.0249C149.43 32.7381 149.869 33.2729 150.692 33.4512L157.604 34.0455C157.878 34.0455 157.933 34.1644 157.988 34.2832C158.262 34.8775 158.811 35.234 159.414 35.234H168.52C169.124 35.234 169.672 34.8774 169.837 34.2832C169.892 34.1643 170.001 34.0455 170.221 34.0455L177.736 33.4512H177.791C178.559 33.2729 178.998 32.7381 178.998 32.0249C178.998 31.1929 178.394 30.4798 177.572 30.4798ZM179.601 19.7828C179.601 22.1006 178.614 24.8936 175.871 25.9039C177.517 22.9919 177.846 19.4262 177.956 16.336C178.888 16.6926 179.601 18.1189 179.601 19.7828ZM170.824 18.2377L172.47 20.0206V23.9428H169.179V20.0206L170.824 18.2377ZM151.625 15.0286H164.242H170.276V17.168L168.246 19.3668C168.136 19.4857 168.081 19.6045 168.081 19.7828V24.537C168.081 24.8936 168.301 25.1313 168.63 25.1313H173.018C173.348 25.1313 173.567 24.8936 173.567 24.537V19.7828C173.567 19.6045 173.512 19.4856 173.403 19.3668L171.373 17.168V15.0286H176.858C176.804 23.0513 175.213 30.4798 164.242 30.4798C153.271 30.4798 151.68 23.0513 151.625 15.0286ZM177.736 32.2626L170.276 32.857C169.727 32.9164 169.233 33.2136 169.014 33.7483C168.904 33.9266 168.74 34.0455 168.575 34.0455H159.414C159.25 34.0455 159.085 33.9266 158.975 33.7483C158.756 33.2135 158.262 32.9163 157.714 32.857L150.802 32.2626C150.528 32.2032 150.528 32.0844 150.528 32.0249C150.528 31.8467 150.692 31.6683 150.857 31.6683H177.681C177.846 31.6683 178.01 31.8466 178.01 32.0249C178.01 32.0844 178.01 32.2032 177.736 32.2626Z" fill="#615E5E"/>
<path d="M163.309 5.69846C162.486 6.58985 162.047 7.48131 162.047 8.43214C162.047 9.38298 162.486 10.3338 163.309 11.2846C163.419 11.4035 163.528 11.4629 163.693 11.4629C163.803 11.4629 163.967 11.4035 164.077 11.2846C164.296 11.0469 164.296 10.6903 164.077 10.4526C163.473 9.73951 163.144 9.08582 163.144 8.43207C163.144 7.77833 163.473 7.12464 164.077 6.53041C164.9 5.69839 165.338 4.74756 165.338 3.79672C165.338 2.78644 164.9 1.83561 164.077 0.944219C163.857 0.706511 163.528 0.706511 163.309 0.944219C163.089 1.18193 163.089 1.53852 163.309 1.77623C163.912 2.48936 164.241 3.14304 164.241 3.79679C164.241 4.45054 163.912 5.10415 163.309 5.69846Z" fill="#615E5E"/>
<path d="M169.892 5.69846C169.069 6.58985 168.63 7.48131 168.63 8.43214C168.63 9.38298 169.069 10.3338 169.892 11.2846C170.001 11.4035 170.111 11.4629 170.276 11.4629C170.385 11.4629 170.55 11.4035 170.66 11.2846C170.879 11.0469 170.879 10.6903 170.66 10.4526C170.056 9.73951 169.727 9.08582 169.727 8.43207C169.727 7.77833 170.056 7.12464 170.66 6.53041C171.482 5.69839 171.921 4.74756 171.921 3.79672C171.921 2.78644 171.482 1.83561 170.66 0.944219C170.44 0.706511 170.111 0.706511 169.892 0.944219C169.672 1.18193 169.672 1.53852 169.892 1.77623C170.495 2.48936 170.824 3.14304 170.824 3.79679C170.824 4.45054 170.495 5.10415 169.892 5.69846Z" fill="#615E5E"/>
<path d="M157.823 5.69846C157 6.58985 156.562 7.48131 156.562 8.43214C156.562 9.38298 157 10.3338 157.823 11.2846C157.933 11.4035 158.043 11.4629 158.207 11.4629C158.317 11.4629 158.482 11.4035 158.591 11.2846C158.811 11.0469 158.811 10.6903 158.591 10.4526C157.988 9.73951 157.659 9.08582 157.659 8.43207C157.659 7.77833 157.988 7.12464 158.591 6.53041C159.414 5.69839 159.853 4.74756 159.853 3.79672C159.853 2.78644 159.414 1.83561 158.591 0.944219C158.372 0.706511 158.043 0.706511 157.823 0.944219C157.604 1.18193 157.604 1.53852 157.823 1.77623C158.427 2.48936 158.756 3.14304 158.756 3.79679C158.756 4.45054 158.427 5.10415 157.823 5.69846Z" fill="#615E5E"/>
<path d="M161.06 27.5084C157.165 26.7953 155.19 24.4182 154.367 19.664C154.313 19.3668 153.983 19.1291 153.709 19.1885C153.435 19.248 153.215 19.6045 153.27 19.9017C154.148 25.1907 156.507 27.865 160.84 28.697C160.895 28.697 160.895 28.697 160.95 28.697C161.224 28.697 161.444 28.5187 161.499 28.2215C161.554 27.865 161.334 27.5679 161.06 27.5084Z" fill="#615E5E"/>
</g>
<path d="M200.744 31H199.2V20.7651L196.104 21.9023V20.5078L200.503 18.856H200.744V31ZM211.726 26.9409H213.403V28.1943H211.726V31H210.182V28.1943H204.679V27.2896L210.091 18.9141H211.726V26.9409ZM206.422 26.9409H210.182V21.0142L210 21.3462L206.422 26.9409ZM223.837 26.1108H220.998V31H219.396V18.9141H223.397C224.758 18.9141 225.804 19.224 226.535 19.8438C227.271 20.4635 227.639 21.3656 227.639 22.5498C227.639 23.3024 227.434 23.9582 227.024 24.5171C226.62 25.076 226.056 25.4938 225.331 25.7705L228.17 30.9004V31H226.46L223.837 26.1108ZM220.998 24.8076H223.447C224.238 24.8076 224.866 24.6029 225.331 24.1934C225.801 23.7839 226.037 23.236 226.037 22.5498C226.037 21.8027 225.812 21.23 225.364 20.8315C224.922 20.4331 224.28 20.2311 223.438 20.2256H220.998V24.8076ZM233.366 31.166C232.149 31.166 231.158 30.7676 230.395 29.9707C229.631 29.1683 229.249 28.0975 229.249 26.7583V26.4761C229.249 25.5851 229.418 24.791 229.755 24.0938C230.098 23.391 230.574 22.8431 231.183 22.4502C231.797 22.0518 232.461 21.8525 233.175 21.8525C234.343 21.8525 235.25 22.2371 235.898 23.0063C236.545 23.7756 236.869 24.8768 236.869 26.3101V26.9492H230.785C230.807 27.8346 231.064 28.5513 231.557 29.0991C232.055 29.6414 232.686 29.9126 233.449 29.9126C233.992 29.9126 234.451 29.8019 234.827 29.5806C235.203 29.3592 235.533 29.0659 235.815 28.7007L236.753 29.4312C236 30.5877 234.871 31.166 233.366 31.166ZM233.175 23.1143C232.556 23.1143 232.035 23.3411 231.615 23.7949C231.194 24.2432 230.934 24.874 230.834 25.6875H235.333V25.5713C235.289 24.791 235.079 24.1878 234.703 23.7617C234.326 23.3301 233.817 23.1143 233.175 23.1143ZM241.501 28.9165L243.726 22.0186H245.294L242.074 31H240.903L237.649 22.0186H239.218L241.501 28.9165ZM248.44 31H246.905V22.0186H248.44V31ZM246.78 19.6362C246.78 19.3872 246.855 19.1769 247.004 19.0054C247.159 18.8338 247.386 18.748 247.685 18.748C247.984 18.748 248.211 18.8338 248.366 19.0054C248.521 19.1769 248.598 19.3872 248.598 19.6362C248.598 19.8853 248.521 20.0928 248.366 20.2588C248.211 20.4248 247.984 20.5078 247.685 20.5078C247.386 20.5078 247.159 20.4248 247.004 20.2588C246.855 20.0928 246.78 19.8853 246.78 19.6362ZM254.633 31.166C253.415 31.166 252.425 30.7676 251.661 29.9707C250.897 29.1683 250.516 28.0975 250.516 26.7583V26.4761C250.516 25.5851 250.684 24.791 251.022 24.0938C251.365 23.391 251.841 22.8431 252.45 22.4502C253.064 22.0518 253.728 21.8525 254.442 21.8525C255.61 21.8525 256.517 22.2371 257.165 23.0063C257.812 23.7756 258.136 24.8768 258.136 26.3101V26.9492H252.051C252.073 27.8346 252.331 28.5513 252.823 29.0991C253.321 29.6414 253.952 29.9126 254.716 29.9126C255.258 29.9126 255.717 29.8019 256.094 29.5806C256.47 29.3592 256.799 29.0659 257.082 28.7007L258.02 29.4312C257.267 30.5877 256.138 31.166 254.633 31.166ZM254.442 23.1143C253.822 23.1143 253.302 23.3411 252.881 23.7949C252.461 24.2432 252.201 24.874 252.101 25.6875H256.6V25.5713C256.556 24.791 256.346 24.1878 255.969 23.7617C255.593 23.3301 255.084 23.1143 254.442 23.1143ZM267.873 28.8833L269.599 22.0186H271.135L268.52 31H267.275L265.092 24.1934L262.967 31H261.722L259.115 22.0186H260.643L262.411 28.7422L264.502 22.0186H265.739L267.873 28.8833ZM277.933 28.6177C277.933 28.2026 277.775 27.8817 277.46 27.6548C277.15 27.4224 276.605 27.2231 275.825 27.0571C275.05 26.8911 274.433 26.6919 273.974 26.4595C273.52 26.2271 273.182 25.9504 272.961 25.6294C272.745 25.3084 272.637 24.9266 272.637 24.4839C272.637 23.7479 272.947 23.1253 273.567 22.6162C274.192 22.1071 274.989 21.8525 275.958 21.8525C276.976 21.8525 277.8 22.1154 278.431 22.6411C279.068 23.1668 279.386 23.8392 279.386 24.6582H277.842C277.842 24.2376 277.662 23.8752 277.302 23.5708C276.948 23.2664 276.5 23.1143 275.958 23.1143C275.399 23.1143 274.961 23.236 274.646 23.4795C274.331 23.723 274.173 24.0412 274.173 24.4341C274.173 24.8049 274.319 25.0843 274.613 25.2725C274.906 25.4606 275.435 25.6405 276.198 25.812C276.967 25.9836 277.59 26.1883 278.066 26.4263C278.542 26.6642 278.893 26.952 279.12 27.2896C279.353 27.6216 279.469 28.0283 279.469 28.5098C279.469 29.3122 279.148 29.9569 278.506 30.4438C277.864 30.9253 277.031 31.166 276.007 31.166C275.288 31.166 274.652 31.0387 274.098 30.7842C273.545 30.5296 273.11 30.1755 272.795 29.7217C272.485 29.2624 272.33 28.7671 272.33 28.2358H273.866C273.893 28.7505 274.098 29.16 274.48 29.4644C274.867 29.7632 275.376 29.9126 276.007 29.9126C276.588 29.9126 277.053 29.7964 277.402 29.564C277.756 29.326 277.933 29.0106 277.933 28.6177Z" fill="#515253"/>
<defs>
<clipPath id="clip0">
<rect width="33.2305" height="34.4681" fill="white" transform="translate(110.297 1.53192)"/>
</clipPath>
<clipPath id="clip1">
<rect width="29.6953" height="36" fill="white"/>
</clipPath>
<clipPath id="clip2">
<rect width="29.6953" height="36" fill="white" transform="translate(38.8867)"/>
</clipPath>
<clipPath id="clip3">
<rect width="29.6953" height="36" fill="white" transform="translate(74.9453)"/>
</clipPath>
<clipPath id="clip4">
<rect width="31.8164" height="34.4681" fill="white" transform="translate(149.184 0.765961)"/>
</clipPath>
</defs>
</svg>
