<svg width="184" height="36" viewBox="0 0 184 36" fill="none" xmlns="http://www.w3.org/2000/svg">
<g clip-path="url(#clip0)">
<path d="M12.8886 5.32542C12.0895 6.24855 11.6774 7.23919 11.6642 8.27032C11.6504 9.32908 12.0581 10.3763 12.8769 11.3843C12.9803 11.5122 13.1177 11.5765 13.2545 11.5765C13.3886 11.5765 13.5233 11.5148 13.6267 11.3914C13.8351 11.1426 13.8378 10.7357 13.632 10.4824C13.0206 9.72965 12.7151 8.99228 12.7247 8.29092C12.7332 7.61719 13.0344 6.93255 13.6156 6.26079C14.4295 5.34279 14.8474 4.34316 14.8575 3.2889C14.8681 2.21213 14.4534 1.16877 13.6251 0.18777C13.4162 -0.0590971 13.08 -0.0558627 12.8753 0.198668C12.6707 0.452566 12.6744 0.859534 12.8838 1.10767C13.4973 1.83343 13.8044 2.5618 13.7969 3.27343C13.7906 3.96193 13.4862 4.65042 12.8886 5.32542Z" fill="#12CB24"/>
<path d="M18.7091 5.32543C17.91 6.24856 17.498 7.2392 17.4847 8.27033C17.4709 9.32909 17.8787 10.3763 18.6975 11.3843C18.8009 11.5122 18.9382 11.5766 19.075 11.5766C19.2092 11.5766 19.3439 11.5148 19.4473 11.3914C19.6557 11.1427 19.6583 10.7357 19.4525 10.4824C18.8411 9.72966 18.5357 8.99229 18.5453 8.29093C18.5537 7.61719 18.8549 6.93256 19.4361 6.2608C20.2543 5.33767 20.6743 4.33417 20.6844 3.2773C20.695 2.20307 20.2824 1.16357 19.4579 0.187709C19.249 -0.0591581 18.9128 -0.0559237 18.7081 0.198607C18.5034 0.452505 18.5076 0.859473 18.7171 1.10761C19.3258 1.82824 19.6307 2.55274 19.6238 3.26184C19.617 3.95364 19.311 4.64593 18.7091 5.32543Z" fill="#12CB24"/>
<path d="M7.57338 5.32543C6.77428 6.24856 6.36225 7.2392 6.34897 8.27033C6.33517 9.32909 6.74296 10.3763 7.56172 11.3843C7.66513 11.5122 7.80247 11.5766 7.93929 11.5766C8.07344 11.5766 8.20812 11.5148 8.31153 11.3914C8.51992 11.1427 8.52258 10.7357 8.3168 10.4824C7.70538 9.72966 7.39996 8.99229 7.40953 8.29093C7.418 7.61719 7.71919 6.93256 8.30039 6.2608C9.11858 5.33767 9.5386 4.33417 9.54864 3.2773C9.55925 2.20307 9.14671 1.16357 8.32214 0.187709C8.11323 -0.0591581 7.77701 -0.0559237 7.57234 0.198607C7.36766 0.452505 7.37189 0.859473 7.58133 1.10761C8.19008 1.82824 8.49498 2.55274 8.48807 3.26184C8.48123 3.95364 8.17523 4.64593 7.57338 5.32543Z" fill="#12CB24"/>
<path d="M27.3472 16.7132H26.5089C26.5099 16.3712 26.4018 16.0491 26.2024 15.8055C26.0014 15.5593 25.7331 15.4236 25.4473 15.4236H21.2067V18.3088L22.5631 19.4164C22.7094 19.536 22.7975 19.7359 22.797 19.95L22.7927 25.0929C22.7922 25.4477 22.5552 25.7351 22.2625 25.7351H19.0808C18.7881 25.7351 18.5505 25.4477 18.5505 25.0922V19.9494C18.5505 19.7353 18.6386 19.5354 18.7849 19.4158L20.1461 18.3081V15.4237H1.06219C0.776368 15.4237 0.508067 15.5593 0.307102 15.8056C0.106659 16.0505 -0.00255194 16.3752 5.79985e-05 16.7191C0.040889 22.5196 0.699462 28.7353 4.85575 32.1379H1.59084C0.713788 32.1379 0 33.0032 0 34.0665C0 35.1298 0.71373 35.9951 1.59084 35.9951H8.48438C8.5411 35.9951 8.59788 35.9842 8.65193 35.9617L10.1611 35.3523H15.8223L17.3315 35.9617C17.3856 35.9842 17.4423 35.9951 17.499 35.9951H23.8623C24.7393 35.9951 25.4531 35.1299 25.4531 34.0665C25.4531 33.0033 24.7394 32.1379 23.8623 32.1379H21.6537C22.5939 31.3684 23.3538 30.4543 23.9689 29.4341C27.2486 28.7533 29.6953 25.2742 29.6953 21.2132V19.5598C29.6953 17.99 28.6422 16.7132 27.3472 16.7132ZM10.5954 30.9596C10.5519 31.2733 10.3276 31.4951 10.0736 31.4951C10.0439 31.4951 10.0142 31.4918 9.98399 31.4861C5.77578 30.6208 3.51628 27.6849 2.65778 21.9673C2.60529 21.6182 2.79617 21.2833 3.08413 21.2203C3.3747 21.1528 3.64834 21.3881 3.70083 21.7372C4.47766 26.9103 6.41 29.4469 10.1617 30.2184C10.4506 30.2782 10.6448 30.6098 10.5954 30.9596ZM28.6348 21.2132C28.6348 24.2295 27.0408 26.8723 24.7738 27.8616C24.7887 27.8275 24.7993 27.7909 24.8136 27.7569C24.9372 27.4644 25.0496 27.1655 25.1562 26.862C25.1864 26.7759 25.2193 26.6916 25.2479 26.6049C25.3519 26.2931 25.4447 25.9749 25.5327 25.6528C25.556 25.5685 25.5825 25.4856 25.6048 25.4008C25.6833 25.0974 25.7517 24.7875 25.8174 24.477C25.8402 24.3696 25.8678 24.2642 25.889 24.1569C25.9309 23.9441 25.9643 23.7275 26.0014 23.5121C26.3248 21.6279 26.4473 19.7225 26.4892 17.999H27.3472C28.0572 17.999 28.6347 18.6991 28.6347 19.5598V21.2132H28.6348Z" fill="#12CB24"/>
<path d="M19.6111 24.4494H21.7327L21.7364 20.2908L20.6759 19.4255L19.6111 20.2921V24.4494Z" fill="#12CB24"/>
</g>
<g clip-path="url(#clip1)">
<path d="M51.7753 5.32542C50.9762 6.24855 50.5642 7.23919 50.5509 8.27032C50.5371 9.32908 50.9449 10.3763 51.7636 11.3843C51.867 11.5122 52.0044 11.5765 52.1412 11.5765C52.2753 11.5765 52.41 11.5148 52.5134 11.3914C52.7218 11.1426 52.7245 10.7357 52.5187 10.4824C51.9073 9.72965 51.6019 8.99228 51.6114 8.29092C51.6199 7.61719 51.9211 6.93255 52.5023 6.26079C53.3162 5.34279 53.7341 4.34316 53.7442 3.2889C53.7548 2.21213 53.3401 1.16877 52.5119 0.18777C52.303 -0.0590971 51.9667 -0.0558627 51.7621 0.198668C51.5574 0.452566 51.5611 0.859534 51.7705 1.10767C52.384 1.83343 52.6911 2.5618 52.6837 3.27343C52.6773 3.96193 52.3729 4.65042 51.7753 5.32542Z" fill="#12CB24"/>
<path d="M57.5958 5.32543C56.7967 6.24856 56.3847 7.2392 56.3714 8.27033C56.3576 9.32909 56.7654 10.3763 57.5842 11.3843C57.6876 11.5122 57.8249 11.5766 57.9618 11.5766C58.0959 11.5766 58.2306 11.5148 58.334 11.3914C58.5424 11.1427 58.545 10.7357 58.3393 10.4824C57.7278 9.72966 57.4224 8.99229 57.432 8.29093C57.4405 7.61719 57.7416 6.93256 58.3229 6.2608C59.141 5.33767 59.5611 4.33417 59.5711 3.2773C59.5817 2.20307 59.1692 1.16357 58.3446 0.187709C58.1357 -0.0591581 57.7995 -0.0559237 57.5948 0.198607C57.3901 0.452505 57.3944 0.859473 57.6038 1.10761C58.2125 1.82824 58.5174 2.55274 58.5105 3.26184C58.5037 3.95364 58.1977 4.64593 57.5958 5.32543Z" fill="#12CB24"/>
<path d="M46.4601 5.32543C45.661 6.24856 45.249 7.2392 45.2357 8.27033C45.2219 9.32909 45.6297 10.3763 46.4484 11.3843C46.5519 11.5122 46.6892 11.5766 46.826 11.5766C46.9602 11.5766 47.0948 11.5148 47.1982 11.3914C47.4066 11.1427 47.4093 10.7357 47.2035 10.4824C46.5921 9.72966 46.2867 8.99229 46.2963 8.29093C46.3047 7.61719 46.6059 6.93256 47.1871 6.2608C48.0053 5.33767 48.4253 4.33417 48.4354 3.2773C48.446 2.20307 48.0334 1.16357 47.2089 0.187709C46.9999 -0.0591581 46.6637 -0.0559237 46.4591 0.198607C46.2544 0.452505 46.2586 0.859473 46.468 1.10761C47.0768 1.82824 47.3817 2.55274 47.3748 3.26184C47.3679 3.95364 47.0619 4.64593 46.4601 5.32543Z" fill="#12CB24"/>
<path d="M66.234 16.7132H65.3956C65.3966 16.3712 65.2885 16.0491 65.0891 15.8055C64.8881 15.5593 64.6198 15.4236 64.334 15.4236H60.0934V18.3088L61.4498 19.4164C61.5962 19.536 61.6842 19.7359 61.6837 19.95L61.6795 25.0929C61.6789 25.4477 61.4419 25.7351 61.1492 25.7351H57.9675C57.6748 25.7351 57.4373 25.4477 57.4373 25.0922V19.9494C57.4373 19.7353 57.5253 19.5354 57.6716 19.4158L59.0329 18.3081V15.4237H39.9489C39.6631 15.4237 39.3948 15.5593 39.1938 15.8056C38.9934 16.0505 38.8842 16.3752 38.8868 16.7191C38.9276 22.5196 39.5862 28.7353 43.7425 32.1379H40.4776C39.6005 32.1379 38.8867 33.0032 38.8867 34.0665C38.8867 35.1298 39.6004 35.9951 40.4776 35.9951H47.3711C47.4278 35.9951 47.4846 35.9842 47.5387 35.9617L49.0478 35.3523H54.709L56.2182 35.9617C56.2723 35.9842 56.329 35.9951 56.3857 35.9951H62.749C63.6261 35.9951 64.3398 35.1299 64.3398 34.0665C64.3398 33.0033 63.6261 32.1379 62.749 32.1379H60.5404C61.4806 31.3684 62.2405 30.4543 62.8556 29.4341C66.1354 28.7533 68.582 25.2742 68.582 21.2132V19.5598C68.582 17.99 67.5289 16.7132 66.234 16.7132ZM49.4821 30.9596C49.4386 31.2733 49.2143 31.4951 48.9603 31.4951C48.9306 31.4951 48.9009 31.4918 48.8707 31.4861C44.6625 30.6208 42.403 27.6849 41.5445 21.9673C41.492 21.6182 41.6829 21.2833 41.9708 21.2203C42.2614 21.1528 42.5351 21.3881 42.5875 21.7372C43.3644 26.9103 45.2967 29.4469 49.0484 30.2184C49.3374 30.2782 49.5315 30.6098 49.4821 30.9596ZM67.5215 21.2132C67.5215 24.2295 65.9275 26.8723 63.6606 27.8616C63.6754 27.8275 63.686 27.7909 63.7004 27.7569C63.8239 27.4644 63.9363 27.1655 64.0429 26.862C64.0731 26.7759 64.106 26.6916 64.1346 26.6049C64.2386 26.2931 64.3314 25.9749 64.4194 25.6528C64.4427 25.5685 64.4692 25.4856 64.4915 25.4008C64.57 25.0974 64.6384 24.7875 64.7041 24.477C64.7269 24.3696 64.7545 24.2642 64.7757 24.1569C64.8176 23.9441 64.851 23.7275 64.8881 23.5121C65.2116 21.6279 65.3341 19.7225 65.3759 17.999H66.2339C66.9439 17.999 67.5214 18.6991 67.5214 19.5598V21.2132H67.5215Z" fill="#12CB24"/>
<path d="M58.4978 24.4494H60.6194L60.6232 20.2908L59.5626 19.4255L58.4978 20.2921V24.4494Z" fill="#12CB24"/>
</g>
<g clip-path="url(#clip2)">
<path d="M87.7753 5.32542C86.9762 6.24855 86.5642 7.23919 86.5509 8.27032C86.5371 9.32908 86.9449 10.3763 87.7636 11.3843C87.867 11.5122 88.0044 11.5765 88.1412 11.5765C88.2753 11.5765 88.41 11.5148 88.5134 11.3914C88.7218 11.1426 88.7245 10.7357 88.5187 10.4824C87.9073 9.72965 87.6019 8.99228 87.6114 8.29092C87.6199 7.61719 87.9211 6.93255 88.5023 6.26079C89.3162 5.34279 89.7341 4.34316 89.7442 3.2889C89.7548 2.21213 89.3401 1.16877 88.5119 0.18777C88.303 -0.0590971 87.9667 -0.0558627 87.7621 0.198668C87.5574 0.452566 87.5611 0.859534 87.7705 1.10767C88.384 1.83343 88.6911 2.5618 88.6837 3.27343C88.6773 3.96193 88.3729 4.65042 87.7753 5.32542Z" fill="#12CB24"/>
<path d="M93.5958 5.32543C92.7967 6.24856 92.3847 7.2392 92.3714 8.27033C92.3576 9.32909 92.7654 10.3763 93.5842 11.3843C93.6876 11.5122 93.8249 11.5766 93.9618 11.5766C94.0959 11.5766 94.2306 11.5148 94.334 11.3914C94.5424 11.1427 94.545 10.7357 94.3393 10.4824C93.7278 9.72966 93.4224 8.99229 93.432 8.29093C93.4405 7.61719 93.7416 6.93256 94.3229 6.2608C95.141 5.33767 95.5611 4.33417 95.5711 3.2773C95.5817 2.20307 95.1692 1.16357 94.3446 0.187709C94.1357 -0.0591581 93.7995 -0.0559237 93.5948 0.198607C93.3901 0.452505 93.3944 0.859473 93.6038 1.10761C94.2125 1.82824 94.5174 2.55274 94.5105 3.26184C94.5037 3.95364 94.1977 4.64593 93.5958 5.32543Z" fill="#12CB24"/>
<path d="M82.4601 5.32543C81.661 6.24856 81.249 7.2392 81.2357 8.27033C81.2219 9.32909 81.6297 10.3763 82.4484 11.3843C82.5519 11.5122 82.6892 11.5766 82.826 11.5766C82.9602 11.5766 83.0948 11.5148 83.1982 11.3914C83.4066 11.1427 83.4093 10.7357 83.2035 10.4824C82.5921 9.72966 82.2867 8.99229 82.2963 8.29093C82.3047 7.61719 82.6059 6.93256 83.1871 6.2608C84.0053 5.33767 84.4253 4.33417 84.4354 3.2773C84.446 2.20307 84.0334 1.16357 83.2089 0.187709C82.9999 -0.0591581 82.6637 -0.0559237 82.4591 0.198607C82.2544 0.452505 82.2586 0.859473 82.468 1.10761C83.0768 1.82824 83.3817 2.55274 83.3748 3.26184C83.3679 3.95364 83.0619 4.64593 82.4601 5.32543Z" fill="#12CB24"/>
<path d="M102.234 16.7132H101.396C101.397 16.3712 101.288 16.0491 101.089 15.8055C100.888 15.5593 100.62 15.4236 100.334 15.4236H96.0934V18.3088L97.4498 19.4164C97.5962 19.536 97.6842 19.7359 97.6837 19.95L97.6795 25.0929C97.6789 25.4477 97.4419 25.7351 97.1492 25.7351H93.9675C93.6748 25.7351 93.4373 25.4477 93.4373 25.0922V19.9494C93.4373 19.7353 93.5253 19.5354 93.6716 19.4158L95.0329 18.3081V15.4237H75.9489C75.6631 15.4237 75.3948 15.5593 75.1938 15.8056C74.9934 16.0505 74.8842 16.3752 74.8868 16.7191C74.9276 22.5196 75.5862 28.7353 79.7425 32.1379H76.4776C75.6005 32.1379 74.8867 33.0032 74.8867 34.0665C74.8867 35.1298 75.6004 35.9951 76.4776 35.9951H83.3711C83.4278 35.9951 83.4846 35.9842 83.5387 35.9617L85.0478 35.3523H90.709L92.2182 35.9617C92.2723 35.9842 92.329 35.9951 92.3857 35.9951H98.749C99.6261 35.9951 100.34 35.1299 100.34 34.0665C100.34 33.0033 99.6261 32.1379 98.749 32.1379H96.5404C97.4806 31.3684 98.2405 30.4543 98.8556 29.4341C102.135 28.7533 104.582 25.2742 104.582 21.2132V19.5598C104.582 17.99 103.529 16.7132 102.234 16.7132ZM85.4821 30.9596C85.4386 31.2733 85.2143 31.4951 84.9603 31.4951C84.9306 31.4951 84.9009 31.4918 84.8707 31.4861C80.6625 30.6208 78.403 27.6849 77.5445 21.9673C77.492 21.6182 77.6829 21.2833 77.9708 21.2203C78.2614 21.1528 78.5351 21.3881 78.5875 21.7372C79.3644 26.9103 81.2967 29.4469 85.0484 30.2184C85.3374 30.2782 85.5315 30.6098 85.4821 30.9596ZM103.521 21.2132C103.521 24.2295 101.927 26.8723 99.6606 27.8616C99.6754 27.8275 99.686 27.7909 99.7004 27.7569C99.8239 27.4644 99.9363 27.1655 100.043 26.862C100.073 26.7759 100.106 26.6916 100.135 26.6049C100.239 26.2931 100.331 25.9749 100.419 25.6528C100.443 25.5685 100.469 25.4856 100.492 25.4008C100.57 25.0974 100.638 24.7875 100.704 24.477C100.727 24.3696 100.755 24.2642 100.776 24.1569C100.818 23.9441 100.851 23.7275 100.888 23.5121C101.212 21.6279 101.334 19.7225 101.376 17.999H102.234C102.944 17.999 103.521 18.6991 103.521 19.5598V21.2132H103.521Z" fill="#12CB24"/>
<path d="M94.4978 24.4494H96.6194L96.6232 20.2908L95.5626 19.4255L94.4978 20.2921V24.4494Z" fill="#12CB24"/>
</g>
<g clip-path="url(#clip3)">
<path d="M127.775 5.32542C126.976 6.24855 126.564 7.23919 126.551 8.27032C126.537 9.32908 126.945 10.3763 127.764 11.3843C127.867 11.5122 128.004 11.5765 128.141 11.5765C128.275 11.5765 128.41 11.5148 128.513 11.3914C128.722 11.1426 128.724 10.7357 128.519 10.4824C127.907 9.72965 127.602 8.99228 127.611 8.29092C127.62 7.61719 127.921 6.93255 128.502 6.26079C129.316 5.34279 129.734 4.34316 129.744 3.2889C129.755 2.21213 129.34 1.16877 128.512 0.18777C128.303 -0.0590971 127.967 -0.0558627 127.762 0.198668C127.557 0.452566 127.561 0.859534 127.771 1.10767C128.384 1.83343 128.691 2.5618 128.684 3.27343C128.677 3.96193 128.373 4.65042 127.775 5.32542Z" fill="#12CB24"/>
<path d="M133.596 5.32543C132.797 6.24856 132.385 7.2392 132.371 8.27033C132.358 9.32909 132.765 10.3763 133.584 11.3843C133.688 11.5122 133.825 11.5766 133.962 11.5766C134.096 11.5766 134.231 11.5148 134.334 11.3914C134.542 11.1427 134.545 10.7357 134.339 10.4824C133.728 9.72966 133.422 8.99229 133.432 8.29093C133.44 7.61719 133.742 6.93256 134.323 6.2608C135.141 5.33767 135.561 4.33417 135.571 3.2773C135.582 2.20307 135.169 1.16357 134.345 0.187709C134.136 -0.0591581 133.799 -0.0559237 133.595 0.198607C133.39 0.452505 133.394 0.859473 133.604 1.10761C134.213 1.82824 134.517 2.55274 134.511 3.26184C134.504 3.95364 134.198 4.64593 133.596 5.32543Z" fill="#12CB24"/>
<path d="M122.46 5.32543C121.661 6.24856 121.249 7.2392 121.236 8.27033C121.222 9.32909 121.63 10.3763 122.448 11.3843C122.552 11.5122 122.689 11.5766 122.826 11.5766C122.96 11.5766 123.095 11.5148 123.198 11.3914C123.407 11.1427 123.409 10.7357 123.204 10.4824C122.592 9.72966 122.287 8.99229 122.296 8.29093C122.305 7.61719 122.606 6.93256 123.187 6.2608C124.005 5.33767 124.425 4.33417 124.435 3.2773C124.446 2.20307 124.033 1.16357 123.209 0.187709C123 -0.0591581 122.664 -0.0559237 122.459 0.198607C122.254 0.452505 122.259 0.859473 122.468 1.10761C123.077 1.82824 123.382 2.55274 123.375 3.26184C123.368 3.95364 123.062 4.64593 122.46 5.32543Z" fill="#12CB24"/>
<path d="M142.234 16.7132H141.396C141.397 16.3712 141.288 16.0491 141.089 15.8055C140.888 15.5593 140.62 15.4236 140.334 15.4236H136.093V18.3088L137.45 19.4164C137.596 19.536 137.684 19.7359 137.684 19.95L137.679 25.0929C137.679 25.4477 137.442 25.7351 137.149 25.7351H133.968C133.675 25.7351 133.437 25.4477 133.437 25.0922V19.9494C133.437 19.7353 133.525 19.5354 133.672 19.4158L135.033 18.3081V15.4237H115.949C115.663 15.4237 115.395 15.5593 115.194 15.8056C114.993 16.0505 114.884 16.3752 114.887 16.7191C114.928 22.5196 115.586 28.7353 119.742 32.1379H116.478C115.601 32.1379 114.887 33.0032 114.887 34.0665C114.887 35.1298 115.6 35.9951 116.478 35.9951H123.371C123.428 35.9951 123.485 35.9842 123.539 35.9617L125.048 35.3523H130.709L132.218 35.9617C132.272 35.9842 132.329 35.9951 132.386 35.9951H138.749C139.626 35.9951 140.34 35.1299 140.34 34.0665C140.34 33.0033 139.626 32.1379 138.749 32.1379H136.54C137.481 31.3684 138.24 30.4543 138.856 29.4341C142.135 28.7533 144.582 25.2742 144.582 21.2132V19.5598C144.582 17.99 143.529 16.7132 142.234 16.7132ZM125.482 30.9596C125.439 31.2733 125.214 31.4951 124.96 31.4951C124.931 31.4951 124.901 31.4918 124.871 31.4861C120.663 30.6208 118.403 27.6849 117.545 21.9673C117.492 21.6182 117.683 21.2833 117.971 21.2203C118.261 21.1528 118.535 21.3881 118.588 21.7372C119.364 26.9103 121.297 29.4469 125.048 30.2184C125.337 30.2782 125.531 30.6098 125.482 30.9596ZM143.521 21.2132C143.521 24.2295 141.927 26.8723 139.661 27.8616C139.675 27.8275 139.686 27.7909 139.7 27.7569C139.824 27.4644 139.936 27.1655 140.043 26.862C140.073 26.7759 140.106 26.6916 140.135 26.6049C140.239 26.2931 140.331 25.9749 140.419 25.6528C140.443 25.5685 140.469 25.4856 140.492 25.4008C140.57 25.0974 140.638 24.7875 140.704 24.477C140.727 24.3696 140.755 24.2642 140.776 24.1569C140.818 23.9441 140.851 23.7275 140.888 23.5121C141.212 21.6279 141.334 19.7225 141.376 17.999H142.234C142.944 17.999 143.521 18.6991 143.521 19.5598V21.2132H143.521Z" fill="#12CB24"/>
<path d="M134.498 24.4494H136.619L136.623 20.2908L135.563 19.4255L134.498 20.2921V24.4494Z" fill="#12CB24"/>
</g>
<g clip-path="url(#clip4)">
<path d="M180.572 30.4798H173.867C175.569 29.7426 176.872 28.6943 177.866 27.4261C181.932 26.767 183.753 23.13 183.753 19.7828C183.753 17.41 182.534 15.4289 180.955 15.0825C180.955 15.0645 180.955 15.0465 180.956 15.0286C180.956 14.7315 180.846 14.4343 180.626 14.1966C180.462 13.9589 180.133 13.84 179.858 13.84H167.242H154.625C154.35 13.84 154.076 13.9589 153.857 14.1966C153.637 14.4343 153.528 14.7315 153.528 15.0286C153.57 21.3798 154.6 27.8735 160.616 30.4798H153.857C153.089 30.4798 152.43 31.1929 152.43 32.0249C152.43 32.7381 152.869 33.2729 153.692 33.4512L160.604 34.0455C160.878 34.0455 160.933 34.1644 160.988 34.2832C161.262 34.8775 161.811 35.234 162.414 35.234H171.52C172.124 35.234 172.672 34.8774 172.837 34.2832C172.892 34.1643 173.001 34.0455 173.221 34.0455L180.736 33.4512H180.791C181.559 33.2729 181.998 32.7381 181.998 32.0249C181.998 31.1929 181.394 30.4798 180.572 30.4798ZM182.601 19.7828C182.601 22.1006 181.614 24.8936 178.871 25.9039C180.517 22.9919 180.846 19.4262 180.956 16.336C181.888 16.6926 182.601 18.1189 182.601 19.7828ZM173.824 18.2377L175.47 20.0206V23.9428H172.179V20.0206L173.824 18.2377ZM154.625 15.0286H167.242H173.276V17.168L171.246 19.3668C171.136 19.4857 171.081 19.6045 171.081 19.7828V24.537C171.081 24.8936 171.301 25.1313 171.63 25.1313H176.018C176.348 25.1313 176.567 24.8936 176.567 24.537V19.7828C176.567 19.6045 176.512 19.4856 176.403 19.3668L174.373 17.168V15.0286H179.858C179.804 23.0513 178.213 30.4798 167.242 30.4798C156.271 30.4798 154.68 23.0513 154.625 15.0286ZM180.736 32.2626L173.276 32.857C172.727 32.9164 172.233 33.2136 172.014 33.7483C171.904 33.9266 171.74 34.0455 171.575 34.0455H162.414C162.25 34.0455 162.085 33.9266 161.975 33.7483C161.756 33.2135 161.262 32.9163 160.714 32.857L153.802 32.2626C153.528 32.2032 153.528 32.0844 153.528 32.0249C153.528 31.8467 153.692 31.6683 153.857 31.6683H180.681C180.846 31.6683 181.01 31.8466 181.01 32.0249C181.01 32.0844 181.01 32.2032 180.736 32.2626Z" fill="#615E5E"/>
<path d="M166.309 5.69845C165.486 6.58984 165.047 7.4813 165.047 8.43213C165.047 9.38297 165.486 10.3338 166.309 11.2846C166.419 11.4035 166.528 11.4629 166.693 11.4629C166.803 11.4629 166.967 11.4035 167.077 11.2846C167.296 11.0469 167.296 10.6903 167.077 10.4526C166.473 9.7395 166.144 9.08582 166.144 8.43207C166.144 7.77832 166.473 7.12464 167.077 6.5304C167.9 5.69838 168.338 4.74755 168.338 3.79672C168.338 2.78644 167.9 1.8356 167.077 0.944212C166.857 0.706503 166.528 0.706503 166.309 0.944212C166.089 1.18192 166.089 1.53852 166.309 1.77623C166.912 2.48935 167.241 3.14303 167.241 3.79678C167.241 4.45053 166.912 5.10415 166.309 5.69845Z" fill="#615E5E"/>
<path d="M172.892 5.69845C172.069 6.58984 171.63 7.4813 171.63 8.43213C171.63 9.38297 172.069 10.3338 172.892 11.2846C173.001 11.4035 173.111 11.4629 173.276 11.4629C173.385 11.4629 173.55 11.4035 173.66 11.2846C173.879 11.0469 173.879 10.6903 173.66 10.4526C173.056 9.7395 172.727 9.08582 172.727 8.43207C172.727 7.77832 173.056 7.12464 173.66 6.5304C174.482 5.69838 174.921 4.74755 174.921 3.79672C174.921 2.78644 174.482 1.8356 173.66 0.944212C173.44 0.706503 173.111 0.706503 172.892 0.944212C172.672 1.18192 172.672 1.53852 172.892 1.77623C173.495 2.48935 173.824 3.14303 173.824 3.79678C173.824 4.45053 173.495 5.10415 172.892 5.69845Z" fill="#615E5E"/>
<path d="M160.823 5.69845C160 6.58984 159.562 7.4813 159.562 8.43213C159.562 9.38297 160 10.3338 160.823 11.2846C160.933 11.4035 161.043 11.4629 161.207 11.4629C161.317 11.4629 161.482 11.4035 161.591 11.2846C161.811 11.0469 161.811 10.6903 161.591 10.4526C160.988 9.7395 160.659 9.08582 160.659 8.43207C160.659 7.77832 160.988 7.12464 161.591 6.5304C162.414 5.69838 162.853 4.74755 162.853 3.79672C162.853 2.78644 162.414 1.8356 161.591 0.944212C161.372 0.706503 161.043 0.706503 160.823 0.944212C160.604 1.18192 160.604 1.53852 160.823 1.77623C161.427 2.48935 161.756 3.14303 161.756 3.79678C161.756 4.45053 161.427 5.10415 160.823 5.69845Z" fill="#615E5E"/>
<path d="M164.06 27.5084C160.165 26.7953 158.19 24.4182 157.367 19.6639C157.313 19.3668 156.983 19.1291 156.709 19.1885C156.435 19.248 156.215 19.6045 156.27 19.9016C157.148 25.1907 159.507 27.865 163.84 28.6969C163.895 28.6969 163.895 28.6969 163.95 28.6969C164.224 28.6969 164.444 28.5187 164.499 28.2215C164.554 27.865 164.334 27.5678 164.06 27.5084Z" fill="#615E5E"/>
</g>
<defs>
<clipPath id="clip0">
<rect width="29.6953" height="36" fill="white"/>
</clipPath>
<clipPath id="clip1">
<rect width="29.6953" height="36" fill="white" transform="translate(38.8867)"/>
</clipPath>
<clipPath id="clip2">
<rect width="29.6953" height="36" fill="white" transform="translate(74.8867)"/>
</clipPath>
<clipPath id="clip3">
<rect width="29.6953" height="36" fill="white" transform="translate(114.887)"/>
</clipPath>
<clipPath id="clip4">
<rect width="31.8164" height="34.4681" fill="white" transform="translate(152.184 0.765961)"/>
</clipPath>
</defs>
</svg>
