<svg width="45" height="45" viewBox="0 0 45 45" fill="none" xmlns="http://www.w3.org/2000/svg">
<path d="M37.2414 15.4622V31.8647C37.2414 33.9773 35.529 35.6897 33.4172 35.6897H17.069L9.31034 44.2241V35.6897H3.82422C1.71233 35.6897 0 33.9773 0 31.8654V15.4629C0 13.3503 1.71233 11.6379 3.82422 11.6379H33.4164C35.529 11.6379 37.2414 13.3503 37.2414 15.4622Z" fill="#0391FD"/>
<path d="M41.1758 0.775879H11.5829C9.47096 0.775879 7.75864 2.48821 7.75864 4.60088V11.6379H33.4172C35.5291 11.6379 37.2414 13.3503 37.2414 15.4629V24.8276H41.1758C43.2877 24.8276 45 23.1153 45 21.0026V4.60088C45 2.48821 43.2877 0.775879 41.1758 0.775879Z" fill="#0F71D3"/>
<path d="M19.3966 20.184H8.5345C8.10545 20.184 7.75864 19.8365 7.75864 19.4082C7.75864 18.9799 8.10545 18.6323 8.5345 18.6323H19.3966C19.8256 18.6323 20.1724 18.9799 20.1724 19.4082C20.1724 19.8365 19.8256 20.184 19.3966 20.184Z" fill="white"/>
<path d="M29.4828 24.8393H8.5345C8.10545 24.8393 7.75864 24.4917 7.75864 24.0634C7.75864 23.6351 8.10545 23.2875 8.5345 23.2875H29.4828C29.9118 23.2875 30.2586 23.6351 30.2586 24.0634C30.2586 24.4917 29.9118 24.8393 29.4828 24.8393Z" fill="white"/>
<path d="M29.4828 29.4944H8.5345C8.10545 29.4944 7.75864 29.1468 7.75864 28.7185C7.75864 28.2903 8.10545 27.9427 8.5345 27.9427H29.4828C29.9118 27.9427 30.2586 28.2903 30.2586 28.7185C30.2586 29.1468 29.9118 29.4944 29.4828 29.4944Z" fill="white"/>
</svg>
