<svg width="167" height="146" viewBox="0 0 167 146" fill="none" xmlns="http://www.w3.org/2000/svg">
<path d="M69.2414 27.4622V43.8647C69.2414 45.9773 67.529 47.6897 65.4172 47.6897H49.069L41.3103 56.2241V47.6897H35.8242C33.7123 47.6897 32 45.9773 32 43.8654V27.4629C32 25.3503 33.7123 23.6379 35.8242 23.6379H65.4164C67.529 23.6379 69.2414 25.3503 69.2414 27.4622Z" fill="#0391FD"/>
<path d="M73.1758 12.7759H43.5829C41.471 12.7759 39.7586 14.4882 39.7586 16.6009V23.6379H65.4172C67.5291 23.6379 69.2414 25.3503 69.2414 27.4629V36.8276H73.1758C75.2877 36.8276 77 35.1153 77 33.0026V16.6009C77 14.4882 75.2877 12.7759 73.1758 12.7759Z" fill="#0F71D3"/>
<path d="M51.3966 32.184H40.5345C40.1054 32.184 39.7586 31.8365 39.7586 31.4082C39.7586 30.9799 40.1054 30.6323 40.5345 30.6323H51.3966C51.8256 30.6323 52.1724 30.9799 52.1724 31.4082C52.1724 31.8365 51.8256 32.184 51.3966 32.184Z" fill="white"/>
<path d="M61.4828 36.8392H40.5345C40.1054 36.8392 39.7586 36.4916 39.7586 36.0634C39.7586 35.6351 40.1054 35.2875 40.5345 35.2875H61.4828C61.9118 35.2875 62.2586 35.6351 62.2586 36.0634C62.2586 36.4916 61.9118 36.8392 61.4828 36.8392Z" fill="white"/>
<path d="M61.4828 41.4944H40.5345C40.1054 41.4944 39.7586 41.1468 39.7586 40.7185C39.7586 40.2903 40.1054 39.9427 40.5345 39.9427H61.4828C61.9118 39.9427 62.2586 40.2903 62.2586 40.7185C62.2586 41.1468 61.9118 41.4944 61.4828 41.4944Z" fill="white"/>
</svg>
