<svg width="45" height="45" viewBox="0 0 45 45" fill="none" xmlns="http://www.w3.org/2000/svg">
<path d="M15.1043 29.312C22.951 29.312 29.312 22.951 29.312 15.1042C29.312 7.25751 22.951 0.896479 15.1043 0.896479C7.25754 0.896479 0.896515 7.25751 0.896515 15.1042C0.896515 22.951 7.25754 29.312 15.1043 29.312Z" fill="#94D1EA"/>
<path d="M39.4302 43.3032L27.3988 31.2718L31.2717 27.3989L43.3031 39.4303C44.3725 40.4997 44.3725 42.2337 43.3031 43.3032C42.2336 44.3726 40.4997 44.3726 39.4302 43.3032Z" fill="#C5824B"/>
<path d="M15.2191 19.6318H12.7975C9.18014 19.6318 6.24768 16.6994 6.24768 13.0821V10.6604H8.66933C12.2866 10.6604 15.2191 13.5929 15.2191 17.2102V19.6318Z" fill="#ADDE52"/>
<path d="M15.2191 19.6318H17.6407C21.258 19.6318 24.1905 16.6994 24.1905 13.0821V10.6604H21.7689C18.1516 10.6604 15.2191 13.5929 15.2191 17.2102V19.6318Z" fill="#ADDE52"/>
<path d="M43.937 38.7963L31.9056 26.7649C31.5555 26.415 30.9881 26.415 30.6378 26.7649L29.382 28.0208L26.438 25.0766C28.7833 22.4143 30.2084 18.9228 30.2084 15.1042C30.2084 6.77574 23.4327 0 15.1042 0C6.77574 0 0 6.77574 0 15.1042C0 23.4327 6.77574 30.2085 15.1042 30.2085C18.9704 30.2085 22.5013 28.7478 25.1757 26.3501L28.1141 29.2886L26.7649 30.6378C26.4149 30.9879 26.4149 31.5555 26.7649 31.9056L38.7963 43.9371C39.505 44.6456 40.4358 44.9999 41.3666 44.9999C42.2975 44.9999 43.2285 44.6456 43.9371 43.937C45.3543 42.5196 45.3543 40.2136 43.937 38.7963ZM19.6943 15.1567C19.3443 14.8067 18.7767 14.8067 18.4265 15.1567L16.1155 17.4677V17.2104C16.1155 14.0931 18.6516 11.557 21.7689 11.557H23.2941V13.0822C23.2941 16.1994 20.758 18.7356 17.6408 18.7356H17.3833L19.6943 16.4246C20.0444 16.0744 20.0444 15.5068 19.6943 15.1567ZM14.3227 17.4676L9.70961 12.8544C9.35954 12.5045 8.79204 12.5044 8.44179 12.8544C8.09172 13.2045 8.09172 13.7721 8.44179 14.1222L13.055 18.7354H12.7976C9.68034 18.7354 7.14418 16.1993 7.14418 13.0821V11.5568H8.66943C11.7867 11.5568 14.3228 14.093 14.3228 17.2102L14.3227 17.4676ZM16.1156 28.3774V20.5282H17.6408C21.7467 20.5282 25.0871 17.1878 25.0871 13.082V10.6603C25.0871 10.1653 24.6857 9.76384 24.1906 9.76384H21.769C18.9434 9.76384 16.4805 11.3459 15.2192 13.6707C13.9579 11.346 11.495 9.76384 8.66943 9.76384H6.24769C5.75261 9.76384 5.35121 10.1652 5.35121 10.6603V13.082C5.35121 17.1879 8.69158 20.5282 12.7975 20.5282H14.3227V28.392C7.34518 27.986 1.79288 22.1816 1.79288 15.1042C1.79288 7.76442 7.76433 1.79288 15.1042 1.79288C22.4441 1.79288 28.4156 7.76433 28.4156 15.1042C28.4155 22.1039 22.9848 27.8589 16.1156 28.3774ZM42.6692 42.6692C41.9509 43.3877 40.7821 43.3876 40.064 42.6692L28.6665 31.2718L31.2717 28.6666L42.6692 40.0642C43.3874 40.7823 43.3874 41.9511 42.6692 42.6692Z" fill="#5E282D"/>
<path d="M20.9376 14.8494C21.1669 14.8494 21.3964 14.7618 21.5714 14.5868L21.8175 14.3407C22.1676 13.9907 22.1676 13.4231 21.8175 13.0729C21.4674 12.7229 20.8998 12.7229 20.5497 13.0729L20.3036 13.319C19.9535 13.6691 19.9535 14.2367 20.3036 14.5868C20.4786 14.7618 20.7081 14.8494 20.9376 14.8494Z" fill="#5E282D"/>
</svg>
