<svg width="46" height="46" viewBox="0 0 46 46" fill="none" xmlns="http://www.w3.org/2000/svg">
<g clip-path="url(#clip0)">
<path d="M43.1995 17.9865L40.0038 17.4444C39.6709 16.3696 39.2429 15.3329 38.7198 14.3437L40.603 11.7092C41.4019 10.5868 41.2782 9.05556 40.2986 8.08543L37.4643 5.25111C36.9317 4.71849 36.2278 4.42365 35.4765 4.42365C34.8868 4.42365 34.3256 4.60436 33.8501 4.94676L31.206 6.82996C30.1788 6.28782 29.104 5.8408 27.9912 5.50791L27.4586 2.35022C27.2303 0.990133 26.0605 0.000976562 24.6813 0.000976562H20.6772C19.2981 0.000976562 18.1282 0.990133 17.8999 2.35022L17.3483 5.584C16.283 5.91689 15.2463 6.3544 14.2572 6.88702L11.6416 5.00382C11.1661 4.66142 10.5954 4.48071 10.0057 4.48071C9.25432 4.48071 8.54098 4.77556 8.01787 5.30818L5.17405 8.14249C4.20391 9.11263 4.07076 10.6439 4.86969 11.7662L6.77191 14.4388C6.2488 15.4375 5.83031 16.4742 5.50694 17.549L2.34925 18.0816C0.989156 18.3099 0 19.4797 0 20.8589V24.863C0 26.2421 0.989156 27.412 2.34925 27.6403L5.58303 28.1919C5.91591 29.2572 6.35343 30.2939 6.88605 31.283L5.01236 33.8891C4.21342 35.0114 4.33707 36.5427 5.31671 37.5128L8.15103 40.3471C8.68365 40.8798 9.38747 41.1746 10.1388 41.1746C10.7285 41.1746 11.2897 40.9939 11.7653 40.6515L14.4379 38.7493C15.3985 39.2534 16.4067 39.6623 17.4434 39.9857L17.976 43.1814C18.2043 44.5415 19.3741 45.5307 20.7533 45.5307H24.7669C26.1461 45.5307 27.3159 44.5415 27.5442 43.1814L28.0863 39.9857C29.1611 39.6528 30.1978 39.2248 31.1869 38.7017L33.8215 40.5849C34.2971 40.9273 34.8678 41.108 35.4574 41.108C36.2088 41.108 36.9126 40.8132 37.4453 40.2806L40.2796 37.4462C41.2497 36.4761 41.3829 34.9448 40.5839 33.8225L38.7007 31.1784C39.2238 30.1797 39.6614 29.143 39.9847 28.0778L43.1805 27.5452C44.5406 27.3169 45.5297 26.147 45.5297 24.7679V20.7637C45.5487 19.3846 44.5596 18.2148 43.1995 17.9865ZM42.9807 24.7679C42.9807 24.8916 42.8951 24.9962 42.7715 25.0152L38.7768 25.681C38.2727 25.7666 37.8733 26.1375 37.7496 26.6226C37.3882 28.0207 36.8366 29.3618 36.0947 30.6077C35.8379 31.0453 35.8569 31.5874 36.1518 32.0059L38.501 35.3158C38.5676 35.4109 38.5581 35.5535 38.4725 35.6391L35.6382 38.4734C35.5716 38.54 35.505 38.5495 35.4574 38.5495C35.4004 38.5495 35.3528 38.5305 35.3148 38.502L32.0144 36.1527C31.6054 35.8579 31.0538 35.8389 30.6163 36.0957C29.3703 36.8375 28.0293 37.3892 26.6311 37.7506C26.1365 37.8742 25.7656 38.2832 25.6895 38.7778L25.0142 42.7725C24.9952 42.8961 24.8906 42.9817 24.7669 42.9817H20.7628C20.6391 42.9817 20.5345 42.8961 20.5155 42.7725L19.8497 38.7778C19.7641 38.2737 19.3932 37.8742 18.9081 37.7506C17.548 37.3987 16.2355 36.8566 15.0085 36.1527C14.8088 36.0386 14.5805 35.9815 14.3618 35.9815C14.105 35.9815 13.8387 36.0576 13.6199 36.2193L10.291 38.5876C10.2435 38.6161 10.1959 38.6351 10.1484 38.6351C10.1103 38.6351 10.0342 38.6256 9.96765 38.559L7.13334 35.7247C7.04774 35.6391 7.03823 35.506 7.1048 35.4013L9.44454 32.12C9.73938 31.7015 9.75841 31.1499 9.50161 30.7124C8.75974 29.4759 8.18907 28.1349 7.82765 26.7367C7.69449 26.2517 7.29503 25.8807 6.80045 25.7951L2.77725 25.1103C2.6536 25.0913 2.568 24.9867 2.568 24.863V20.8589C2.568 20.7352 2.6536 20.6306 2.77725 20.6116L6.74338 19.9458C7.24747 19.8602 7.65645 19.4893 7.78009 18.9947C8.132 17.5965 8.67414 16.246 9.40649 15C9.66329 14.5625 9.63476 14.0204 9.33992 13.6114L6.97165 10.2825C6.90507 10.1874 6.91458 10.0447 7.00018 9.95912L9.83449 7.1248C9.90107 7.05822 9.96765 7.04871 10.0152 7.04871C10.0723 7.04871 10.1198 7.06774 10.1579 7.09627L13.4392 9.436C13.8577 9.73085 14.4093 9.74987 14.8469 9.49307C16.0833 8.7512 17.4244 8.18054 18.8225 7.81911C19.3076 7.68596 19.6785 7.28649 19.7641 6.79191L20.4489 2.76871C20.4679 2.64507 20.5725 2.55947 20.6962 2.55947H24.7004C24.824 2.55947 24.9286 2.64507 24.9477 2.76871L25.6134 6.73485C25.699 7.23894 26.07 7.64791 26.5645 7.77156C28.0007 8.13298 29.3703 8.69414 30.6448 9.44552C31.0823 9.70232 31.6245 9.68329 32.0429 9.38845L35.3243 7.02969C35.3718 7.00116 35.4194 6.98214 35.467 6.98214C35.505 6.98214 35.5811 6.99165 35.6477 7.05822L38.482 9.89254C38.5676 9.97814 38.5771 10.1113 38.5105 10.2159L36.1613 13.5163C35.8664 13.9253 35.8474 14.4769 36.1042 14.9144C36.8461 16.1604 37.3977 17.5014 37.7591 18.8996C37.8828 19.3941 38.2918 19.7651 38.7863 19.8412L42.781 20.5165C42.9046 20.5355 42.9902 20.6401 42.9902 20.7637V24.7679H42.9807Z" fill="#66382B"/>
<path d="M22.7696 12.9352C17.3483 12.9352 12.9446 17.3388 12.9446 22.7602C12.9446 28.1815 17.3483 32.5851 22.7696 32.5851C28.191 32.5851 32.5946 28.1815 32.5946 22.7602C32.5946 17.3388 28.191 12.9352 22.7696 12.9352ZM22.7696 30.0171C18.7654 30.0171 15.5126 26.7643 15.5126 22.7602C15.5126 18.756 18.7654 15.5032 22.7696 15.5032C26.7738 15.5032 30.0266 18.756 30.0266 22.7602C30.0266 26.7643 26.7738 30.0171 22.7696 30.0171Z" fill="#66382B"/>
</g>
<defs>
<clipPath id="clip0">
<rect width="45.53" height="45.53" fill="white"/>
</clipPath>
</defs>
</svg>
