<svg width="45" height="45" viewBox="0 0 45 45" fill="none" xmlns="http://www.w3.org/2000/svg">
<path d="M37.5125 1.00165H1.61719V43.9983H37.5125V1.00165Z" fill="#E8E8E8"/>
<path d="M19.1692 40.8516C19.4451 40.8516 19.6687 40.6279 19.6687 40.3521C19.6687 40.0762 19.4451 39.8526 19.1692 39.8526C18.8934 39.8526 18.6697 40.0762 18.6697 40.3521C18.6697 40.6279 18.8934 40.8516 19.1692 40.8516Z" fill="#1E252B"/>
<path d="M40.8642 21.1779C42.2561 21.1779 43.3846 20.0495 43.3846 18.6575C43.3846 17.2655 42.2561 16.1371 40.8642 16.1371C39.4722 16.1371 38.3438 17.2655 38.3438 18.6575C38.3438 20.0495 39.4722 21.1779 40.8642 21.1779Z" fill="#61B4E4"/>
<path d="M21.0481 34.9093L24.6123 38.4734L42.6296 20.4561L39.0654 16.892L21.0481 34.9093Z" fill="#1E252B"/>
<path d="M22.2087 36.0674L23.456 37.3147L41.4731 19.2976L40.2258 18.0503L22.2087 36.0674Z" fill="#333E48"/>
<path d="M19.5567 40.7396L18.7816 39.9644L21.0479 34.9094L24.6121 38.4735L19.5567 40.7396Z" fill="#61B4E4"/>
<path d="M43.3545 16.167C42.0271 14.8397 39.8955 14.7957 38.5143 16.0342V1.00165C38.5143 0.448337 38.0659 0 37.5126 0H1.61719C1.06401 0 0.61554 0.448337 0.61554 1.00165V43.9984C0.61554 44.5517 1.06401 45 1.61719 45H37.5125C38.0658 45 38.5141 44.5517 38.5141 43.9984V25.9881L43.3379 21.1643C43.3406 21.1616 43.3426 21.1588 43.3451 21.1563C43.3482 21.1533 43.3515 21.1508 43.3545 21.1478C44.7277 19.7745 44.7277 17.5402 43.3545 16.167ZM36.511 42.9967H2.61883V2.00329H36.5108V18.0296L32.6792 21.8614C32.5279 21.7695 32.3511 21.7158 32.1611 21.7158H6.87503C6.32186 21.7158 5.87339 22.1642 5.87339 22.7175C5.87339 23.2708 6.32186 23.7191 6.87503 23.7191H30.8213L28.505 26.0355H6.87503C6.32186 26.0355 5.87339 26.4838 5.87339 27.0371C5.87339 27.5904 6.32186 28.0388 6.87503 28.0388H26.5017L24.1854 30.3551H6.87503C6.32186 30.3551 5.87339 30.8035 5.87339 31.3568C5.87339 31.9101 6.32186 32.3584 6.87503 32.3584H22.1822L20.3396 34.201C20.3125 34.2282 20.2878 34.2566 20.2644 34.2859C20.2584 34.2936 20.2529 34.3017 20.247 34.3096C20.2298 34.3326 20.2134 34.356 20.1984 34.38C20.1928 34.389 20.1875 34.3983 20.1821 34.4075C20.1676 34.4325 20.1543 34.458 20.1421 34.4838C20.1395 34.4893 20.1363 34.4941 20.1338 34.4995L19.97 34.8648C19.8052 34.7455 19.6033 34.6746 19.3845 34.6746H6.87503C6.32186 34.6746 5.87339 35.123 5.87339 35.6763C5.87339 36.2296 6.32186 36.6779 6.87503 36.6779H19.1572L17.8675 39.5545C17.8444 39.6062 17.8268 39.6591 17.8129 39.7126C17.5513 40.2693 17.6483 40.9543 18.1075 41.4133C18.391 41.697 18.7679 41.8531 19.1691 41.8531C19.3968 41.8531 19.616 41.8011 19.8155 41.7057C19.8665 41.6919 19.9171 41.6755 19.9663 41.6534L25.0217 39.3873C25.0269 39.3849 25.0316 39.3818 25.0366 39.3793C25.0631 39.367 25.0891 39.3535 25.1145 39.3386C25.1233 39.3335 25.1321 39.3284 25.1407 39.3231C25.1656 39.3076 25.1898 39.2907 25.2136 39.2729C25.2205 39.2675 25.2279 39.2627 25.2348 39.2572C25.2643 39.2337 25.2931 39.2089 25.3203 39.1816L36.5108 27.9911V42.9967H36.511ZM22.8759 38.1541L20.2624 39.3256C20.2514 39.314 20.2418 39.3017 20.2306 39.2903C20.2194 39.2791 20.2072 39.2695 20.1957 39.2587L21.3674 36.6455L22.8759 38.1541ZM24.6121 37.0571L22.4644 34.9094L39.0656 18.3082L41.2132 20.4559L24.6121 37.0571ZM42.3759 18.7854L40.7362 17.1457C41.1666 17.1095 41.6094 17.2549 41.938 17.5836C42.2667 17.9121 42.412 18.3551 42.3759 18.7854ZM6.87503 15.08H32.1611C32.7145 15.08 33.1628 14.6317 33.1628 14.0784C33.1628 13.525 32.7145 13.0767 32.1611 13.0767H6.87503C6.32186 13.0767 5.87339 13.525 5.87339 14.0784C5.87339 14.6317 6.32186 15.08 6.87503 15.08ZM6.87503 10.7604H29.6681C30.2214 10.7604 30.6698 10.312 30.6698 9.75871C30.6698 9.2054 30.2214 8.75707 29.6681 8.75707H6.87503C6.32186 8.75707 5.87339 9.2054 5.87339 9.75871C5.87339 10.312 6.32186 10.7604 6.87503 10.7604ZM6.87503 19.3996H28.2435C28.7968 19.3996 29.2452 18.9513 29.2452 18.398C29.2452 17.8447 28.7968 17.3963 28.2435 17.3963H6.87503C6.32186 17.3963 5.87339 17.8447 5.87339 18.398C5.87339 18.9513 6.32186 19.3996 6.87503 19.3996Z" fill="#071C2C"/>
</svg>
